<svg width="39" height="39" viewBox="0 0 39 39" fill="none" xmlns="http://www.w3.org/2000/svg">
<path d="M23.8516 3.84578C23.8516 7.3479 18.8516 10.5868 16.8516 13.6162C13.5481 13.6162 4.85156 27.0883 4.85156 23.5861C7.85156 19.1162 11.0481 10.5868 14.3516 10.5868C16.8516 7.11618 23.8516 0.343659 23.8516 3.84578Z" fill="#C4C4C4"/>
<path d="M14.8516 9.61618C14.8516 11.5492 12.1653 13.1162 8.85158 13.1162C5.53787 13.1162 2.85156 10.0492 2.85156 8.11618C-2.64844 5.61618 5.53787 2.11618 8.85158 2.11618C12.1653 2.11618 14.8516 7.68318 14.8516 9.61618Z" fill="#C4C4C4"/>
<path d="M13.7379 17.3515C14.6554 22.3062 16.8357 27.0503 18.3762 31.8339C18.9999 33.7706 20.6453 35.9946 20.6453 38.0739" stroke="black" stroke-linecap="round" stroke-linejoin="round"/>
<path d="M20.6453 11.345C25.0994 11.345 28.9365 13.0131 33.0754 14.4818C34.2424 14.8958 37.472 15.2663 38.0642 16.4506" stroke="black" stroke-linecap="round" stroke-linejoin="round"/>
<path d="M9.53333 7.14048C5.86987 6.42566 7.80268 9.97292 10.134 9.8434C11.18 9.78529 11.7916 8.16629 10.9682 7.50754C10.2138 6.90401 9.06287 8.30184 8.63235 7.4408" stroke="black" stroke-linecap="round" stroke-linejoin="round"/>
<path d="M9.233 13.147C6.63439 11.6621 1.42456 10.1338 1.42456 6.38968C1.42456 4.12254 2.85361 4.77015 4.42781 4.0705C5.79528 3.46274 7.83955 1.4083 9.38317 1.75133C9.69504 1.82064 10.7646 2.89373 11.1017 3.16953C11.7014 3.66018 12.0453 3.97366 12.5366 4.58773C12.9835 5.14633 13.4329 5.60765 13.8046 6.23952C14.0587 6.6715 14.6696 7.60105 15.0059 7.97473C15.3269 8.33142 15.674 9.36312 16.2906 9.22608C16.6682 9.14216 17.3738 8.2764 17.6421 8.00809C18.8995 6.75068 20.1122 5.67443 21.5296 4.58773C22.4532 3.87964 23.2514 3.12016 24.0824 2.33529C24.412 2.02399 26.4843 0.174913 25.8176 1.43432C25.508 2.01908 24.91 2.5204 24.5329 3.08611C23.7315 4.28822 22.9763 5.51228 22.2137 6.77343C21.1345 8.55819 20.3139 10.7657 18.9936 12.3795C17.8827 13.7372 16.7508 15.7605 15.2395 16.6841C13.2019 17.9293 11.9447 20.3127 10.2841 21.9732C9.04999 23.2073 7.24859 24.3369 6.22976 25.6105C4.50026 27.7723 5.02846 24.8368 5.02846 23.358C5.02846 21.2016 4.97322 18.6882 6.36323 16.901C7.00425 16.0769 7.42668 14.9886 8.0317 14.1147C8.23706 13.8181 9.83365 12.0227 9.83365 12.5463" stroke="black" stroke-linecap="round" stroke-linejoin="round"/>
<path d="M15.936 18.5195C16.1659 20.6347 16.9321 23.0601 17.9885 24.9465C18.354 25.5991 19.2947 26.7462 19.2947 27.4758" stroke="black" stroke-linecap="round" stroke-linejoin="round"/>
<path d="M17.6154 17.7731C19.3055 18.8596 21.041 20.7822 22.2386 22.3964C22.7293 23.0578 23.6131 23.7977 23.9594 24.4904" stroke="black" stroke-linecap="round" stroke-linejoin="round"/>
<path d="M20.2276 15.7206C21.1886 15.7206 22.1814 15.653 23.1301 15.8347C24.1963 16.0388 25.0233 16.604 26.0119 16.9853C26.6888 17.2464 28.0797 17.4305 28.4375 18.1463" stroke="black" stroke-linecap="round" stroke-linejoin="round"/>
</svg>
