<svg width="39" height="33" viewBox="0 0 39 33" fill="none" xmlns="http://www.w3.org/2000/svg">
<path d="M38.3694 7.22643C35.8629 4.32815 32.2471 2.13211 28.0458 0.95643C23.8446 -0.219247 19.2761 -0.313505 15.0021 0.687312C10.7281 1.68813 6.97064 3.73205 4.27397 6.52297C1.57731 9.3139 0.0814954 12.7069 0.00323371 16.2105C-0.075028 19.714 1.26832 23.1462 3.83868 26.0097C6.40904 28.8733 10.0729 31.0195 14.2996 32.1376C18.5262 33.2556 23.0961 33.2874 27.3473 32.2283C31.5984 31.1691 35.3101 29.0742 37.9445 26.2468L30.5508 21.9938C29.0659 23.5874 26.9738 24.7683 24.5776 25.3652C22.1815 25.9622 19.6057 25.9443 17.2233 25.3141C14.841 24.6839 12.7758 23.4742 11.327 21.8601C9.87825 20.2461 9.12107 18.3116 9.16518 16.3368C9.20929 14.362 10.0524 12.4496 11.5724 10.8765C13.0924 9.30335 15.2103 8.15129 17.6193 7.58718C20.0283 7.02307 22.6034 7.0762 24.9714 7.73887C27.3394 8.40154 29.3774 9.63934 30.7902 11.273L38.3694 7.22643Z" fill="url(#paint0_linear)"/>
<defs>
<linearGradient id="paint0_linear" x1="44.5" y1="9.5" x2="4.97559e-07" y2="12" gradientUnits="userSpaceOnUse">
<stop stop-color="#515098"/>
<stop offset="1" stop-color="#D6D9E2" stop-opacity="0.82"/>
</linearGradient>
</defs>
</svg>
