<svg width="146" height="33" viewBox="0 0 146 33" fill="none" xmlns="http://www.w3.org/2000/svg">
<path d="M42.73 16.744C40.366 17.032 38.692 17.284 37.708 17.5L36.736 21.352C36.652 21.7 36.526 21.934 36.358 22.054C36.202 22.174 35.884 22.234 35.404 22.234C35.032 22.234 34.756 22.168 34.576 22.036C34.408 21.916 34.324 21.706 34.324 21.406C34.324 21.274 34.342 21.148 34.378 21.028L36.844 11.29C36.976 10.762 37.114 10.414 37.258 10.246C37.414 10.066 37.69 9.976 38.086 9.976C38.41 9.976 38.704 10.012 38.968 10.084C39.244 10.156 39.388 10.264 39.4 10.408C39.4 10.432 39.322 10.756 39.166 11.38C38.926 12.304 38.584 13.708 38.14 15.592C39.916 15.232 41.602 14.986 43.198 14.854L44.026 11.506C44.146 11.026 44.308 10.672 44.512 10.444C44.728 10.204 45.016 10.048 45.376 9.976C45.82 10.06 46.108 10.132 46.24 10.192C46.384 10.24 46.48 10.318 46.528 10.426C46.372 10.87 46.252 11.284 46.168 11.668C46.096 12.04 46.054 12.262 46.042 12.334C45.886 13.174 45.7 14.032 45.484 14.908C45.952 15.112 46.186 15.388 46.186 15.736C46.186 16.084 45.814 16.378 45.07 16.618C44.938 17.098 44.692 18.142 44.332 19.75C44.248 20.194 44.128 20.746 43.972 21.406C43.804 22.066 43.54 22.396 43.18 22.396C42.076 22.396 41.524 22.138 41.524 21.622C41.524 21.514 41.926 19.888 42.73 16.744ZM54.6101 18.004C53.0381 18.268 51.7841 18.508 50.8481 18.724C50.5601 19.18 50.3741 19.486 50.2901 19.642C50.0381 20.086 49.8101 20.458 49.6061 20.758C49.4141 21.046 49.2041 21.304 48.9761 21.532C48.7241 21.784 48.5141 21.964 48.3461 22.072C48.1901 22.18 48.0041 22.234 47.7881 22.234C47.4281 22.234 47.1101 22.156 46.8341 22C46.5701 21.832 46.4381 21.664 46.4381 21.496C46.4621 21.472 46.5941 21.208 46.8341 20.704C47.0741 20.188 47.5181 19.546 48.1661 18.778C48.1661 18.682 48.1361 18.562 48.0761 18.418C48.0161 18.274 47.9861 18.19 47.9861 18.166C47.9861 17.818 48.5321 17.398 49.6241 16.906C50.2361 15.994 50.8781 15.094 51.5501 14.206C52.2341 13.318 53.0681 12.268 54.0521 11.056C54.2921 10.756 54.5981 10.51 54.9701 10.318C55.3421 10.126 55.7141 10.03 56.0861 10.03C56.4701 10.03 56.7581 10.066 56.9501 10.138C57.1421 10.21 57.2621 10.306 57.3101 10.426C57.3701 10.546 57.4001 10.714 57.4001 10.93C57.3521 11.29 57.3221 11.56 57.3101 11.74C57.1301 13.192 56.9921 14.44 56.8961 15.484C56.8121 16.516 56.7701 17.548 56.7701 18.58C56.7701 19.528 56.8121 20.398 56.8961 21.19C56.8601 21.478 56.7341 21.742 56.5181 21.982C56.3021 22.21 56.0501 22.324 55.7621 22.324C55.2101 22.324 54.8441 22.186 54.6641 21.91C54.4961 21.634 54.4121 21.166 54.4121 20.506C54.4121 20.026 54.4781 19.192 54.6101 18.004ZM52.2701 16.654C52.4861 16.606 52.8161 16.552 53.2601 16.492L54.7001 16.276C54.8081 14.608 54.9341 13.408 55.0781 12.676C54.6101 13.228 53.6741 14.554 52.2701 16.654ZM63.4886 20.83C63.3926 21.25 63.2426 21.574 63.0386 21.802C62.8466 22.03 62.5286 22.144 62.0846 22.144C61.7126 22.144 61.4366 22.084 61.2566 21.964C61.0886 21.832 61.0046 21.616 61.0046 21.316C61.0046 21.184 61.0226 21.058 61.0586 20.938L63.2186 12.316C63.2066 12.316 62.8166 12.358 62.0486 12.442C61.1246 12.514 60.5486 12.574 60.3206 12.622C60.0806 12.538 59.8946 12.412 59.7626 12.244C59.6426 12.064 59.5826 11.854 59.5826 11.614C59.5826 11.422 59.6486 11.242 59.7806 11.074C59.9246 10.894 60.0926 10.762 60.2846 10.678C61.2446 10.486 63.3026 10.318 66.4586 10.174C67.3346 10.138 67.9346 10.102 68.2586 10.066C68.4506 10.15 68.6126 10.282 68.7446 10.462C68.8886 10.63 68.9606 10.81 68.9606 11.002C68.9606 11.218 68.8526 11.428 68.6366 11.632C68.4206 11.836 68.1746 11.98 67.8986 12.064L65.5406 12.154L63.4886 20.83ZM76.6289 13.864C76.6409 14.236 76.7609 14.524 76.9889 14.728C77.2289 14.92 77.5949 15.136 78.0869 15.376L78.6269 15.646C79.2629 15.994 79.7609 16.3 80.1209 16.564C80.4809 16.828 80.7869 17.182 81.0389 17.626C81.3029 18.07 81.4349 18.616 81.4349 19.264C81.4349 19.936 81.2249 20.518 80.8049 21.01C80.3969 21.49 79.8269 21.856 79.0949 22.108C78.3749 22.372 77.5649 22.504 76.6649 22.504C75.9929 22.504 75.3629 22.378 74.7749 22.126C74.1989 21.886 73.7369 21.58 73.3889 21.208C73.0409 20.824 72.8669 20.446 72.8669 20.074C72.8669 19.738 72.9929 19.462 73.2449 19.246C73.4969 19.03 73.8569 18.88 74.3249 18.796C74.3849 19.144 74.5589 19.456 74.8469 19.732C75.1469 20.008 75.4889 20.23 75.8729 20.398C76.2569 20.554 76.5989 20.632 76.8989 20.632C77.4389 20.632 77.9129 20.506 78.3209 20.254C78.7409 20.002 78.9509 19.654 78.9509 19.21C78.9389 18.79 78.7949 18.454 78.5189 18.202C78.2429 17.938 77.7989 17.638 77.1869 17.302L76.7369 17.05C76.2449 16.762 75.8309 16.492 75.4949 16.24C75.1589 15.988 74.8649 15.658 74.6129 15.25C74.3729 14.842 74.2529 14.356 74.2529 13.792C74.2529 13.108 74.4389 12.49 74.8109 11.938C75.1829 11.386 75.7049 10.954 76.3769 10.642C77.0489 10.318 77.8169 10.156 78.6809 10.156C79.3529 10.156 79.9529 10.276 80.4809 10.516C81.0209 10.756 81.4409 11.068 81.7409 11.452C82.0409 11.824 82.1909 12.202 82.1909 12.586C82.1909 12.91 82.0769 13.168 81.8489 13.36C81.6329 13.552 81.3749 13.648 81.0749 13.648C80.9429 13.648 80.8469 13.618 80.7869 13.558C80.7389 13.486 80.7029 13.414 80.6789 13.342C80.6549 13.258 80.6369 13.198 80.6249 13.162C80.4329 12.778 80.1689 12.496 79.8329 12.316C79.5089 12.124 79.1609 12.028 78.7889 12.028C78.1169 12.028 77.5889 12.208 77.2049 12.568C76.8209 12.928 76.6289 13.36 76.6289 13.864ZM83.3102 12.1C83.3102 11.932 83.3582 11.8 83.4542 11.704C83.5622 11.596 83.7062 11.5 83.8862 11.416C83.9462 11.38 84.1622 11.272 84.5342 11.092C84.9182 10.912 85.2842 10.774 85.6322 10.678C85.7402 10.438 85.9022 10.24 86.1182 10.084C86.3462 9.928 86.6342 9.85 86.9822 9.85C87.1862 9.85 87.3542 9.892 87.4862 9.976C87.6182 10.048 87.7082 10.144 87.7562 10.264C88.2002 10.12 88.7342 10.048 89.3582 10.048C90.1382 10.048 90.8102 10.216 91.3742 10.552C91.9502 10.876 92.3822 11.326 92.6702 11.902C92.9702 12.478 93.1202 13.126 93.1202 13.846C93.1202 13.99 93.1022 14.188 93.0662 14.44C92.5742 17.248 90.4742 18.652 86.7662 18.652C86.4302 18.652 86.1842 18.646 86.0282 18.634L85.7942 19.498C85.5422 20.422 85.4162 20.896 85.4162 20.92C85.3202 21.34 85.1702 21.664 84.9662 21.892C84.7742 22.12 84.4562 22.234 84.0122 22.234C83.6402 22.234 83.3642 22.168 83.1842 22.036C83.0162 21.916 82.9322 21.706 82.9322 21.406C82.9322 21.274 82.9502 21.148 82.9862 21.028L85.1642 12.622C84.5402 12.802 84.0662 13.048 83.7422 13.36C83.6102 13.216 83.5022 13.03 83.4182 12.802C83.3462 12.562 83.3102 12.328 83.3102 12.1ZM86.4062 16.96C86.5502 16.972 86.7542 16.978 87.0182 16.978C88.1582 16.978 89.0582 16.762 89.7182 16.33C90.3902 15.898 90.8222 15.232 91.0142 14.332C91.0502 14.128 91.0682 13.978 91.0682 13.882C91.0682 13.21 90.8822 12.712 90.5102 12.388C90.1382 12.052 89.6162 11.884 88.9442 11.884C88.5842 11.884 88.1222 11.968 87.5582 12.136C87.0902 13.996 86.7062 15.604 86.4062 16.96ZM94.6426 16.906C95.1706 16.006 95.7286 15.112 96.3166 14.224C96.9166 13.336 97.6606 12.28 98.5486 11.056C98.7646 10.756 99.0466 10.51 99.3946 10.318C99.7426 10.126 100.103 10.03 100.475 10.03C101.039 10.03 101.411 10.102 101.591 10.246C101.771 10.39 101.861 10.618 101.861 10.93L101.843 12.586C101.819 13.426 101.807 14.092 101.807 14.584C101.807 16.108 101.861 17.44 101.969 18.58C102.041 19.552 102.161 20.422 102.329 21.19C102.317 21.478 102.215 21.742 102.023 21.982C101.831 22.21 101.591 22.324 101.303 22.324C100.751 22.324 100.373 22.186 100.169 21.91C99.9646 21.634 99.8326 21.166 99.7726 20.506C99.7486 20.098 99.7366 19.264 99.7366 18.004C98.1886 18.256 96.9586 18.496 96.0466 18.724C95.8546 19.096 95.7046 19.39 95.5966 19.606C95.3566 20.098 95.1526 20.488 94.9846 20.776C94.8286 21.064 94.6486 21.316 94.4446 21.532C94.2046 21.796 94.0126 21.976 93.8686 22.072C93.7246 22.18 93.5446 22.234 93.3286 22.234C92.9686 22.234 92.6446 22.156 92.3566 22C92.0686 21.832 91.9186 21.664 91.9066 21.496C91.9186 21.496 92.0206 21.31 92.2126 20.938C92.2966 20.794 92.6086 20.242 93.1486 19.282C93.6886 18.31 94.1866 17.518 94.6426 16.906ZM97.2706 16.654C97.5106 16.594 97.8346 16.54 98.2426 16.492L99.6826 16.276C99.6586 15.436 99.6466 14.83 99.6466 14.458C99.6466 13.666 99.6706 13.072 99.7186 12.676C99.4546 13.024 99.0946 13.576 98.6386 14.332C98.1946 15.076 97.7386 15.85 97.2706 16.654ZM113.586 19.516C113.406 20.056 113.07 20.566 112.578 21.046C112.086 21.514 111.45 21.898 110.67 22.198C109.902 22.498 109.032 22.648 108.06 22.648C106.596 22.648 105.522 22.294 104.838 21.586C104.154 20.866 103.812 19.948 103.812 18.832C103.812 17.236 104.142 15.778 104.802 14.458C105.474 13.126 106.386 12.082 107.538 11.326C108.69 10.558 109.956 10.174 111.336 10.174C111.888 10.174 112.392 10.3 112.848 10.552C113.304 10.804 113.664 11.17 113.928 11.65C114.192 12.118 114.324 12.67 114.324 13.306C114.324 13.666 114.186 13.972 113.91 14.224C113.646 14.476 113.286 14.602 112.83 14.602C112.47 14.602 112.224 14.506 112.092 14.314C111.972 14.122 111.912 13.876 111.912 13.576L111.93 13C111.93 12.784 111.81 12.574 111.57 12.37C111.33 12.166 111.108 12.064 110.904 12.064C110.244 12.064 109.536 12.382 108.78 13.018C108.024 13.654 107.388 14.5 106.872 15.556C106.368 16.612 106.116 17.746 106.116 18.958C106.116 19.51 106.332 19.96 106.764 20.308C107.196 20.656 107.742 20.83 108.402 20.83C108.774 20.83 109.194 20.734 109.662 20.542C110.142 20.35 110.448 20.11 110.58 19.822C110.592 19.786 110.652 19.636 110.76 19.372C110.868 19.096 111.03 18.844 111.246 18.616C111.474 18.376 111.72 18.256 111.984 18.256C112.596 18.256 113.01 18.388 113.226 18.652C113.454 18.916 113.574 19.204 113.586 19.516ZM117.528 12.28C117.516 12.172 117.426 12.01 117.258 11.794C117.246 11.77 117.198 11.698 117.114 11.578C117.03 11.446 116.982 11.32 116.97 11.2C116.994 10.852 117.216 10.576 117.636 10.372C118.536 10.252 119.796 10.138 121.416 10.03C123.036 9.91 124.194 9.844 124.89 9.832C125.334 10.06 125.556 10.348 125.556 10.696C125.556 10.912 125.442 11.116 125.214 11.308C124.986 11.488 124.728 11.614 124.44 11.686L123.648 11.74C123.276 11.764 122.784 11.8 122.172 11.848C121.572 11.884 120.858 11.938 120.03 12.01C119.862 12.85 119.664 13.726 119.436 14.638C120.204 14.518 120.834 14.422 121.326 14.35C121.83 14.278 122.382 14.218 122.982 14.17C123.462 14.362 123.702 14.644 123.702 15.016C123.702 15.232 123.594 15.442 123.378 15.646C123.174 15.838 122.934 15.976 122.658 16.06L121.65 16.168C120.57 16.288 119.694 16.408 119.022 16.528L118.338 19.21C118.326 19.282 118.314 19.372 118.302 19.48C118.29 19.576 118.284 19.66 118.284 19.732C118.284 20.08 118.584 20.254 119.184 20.254C119.604 20.254 120.018 20.224 120.426 20.164C120.834 20.092 121.362 19.99 122.01 19.858L122.658 19.732C122.838 19.816 123 19.96 123.144 20.164C123.288 20.368 123.36 20.566 123.36 20.758C123.36 20.974 123.252 21.184 123.036 21.388C122.82 21.592 122.58 21.736 122.316 21.82C121.668 21.964 120.96 22.09 120.192 22.198C119.424 22.306 118.704 22.36 118.032 22.36C117.408 22.36 116.868 22.216 116.412 21.928C115.956 21.64 115.728 21.16 115.728 20.488C115.728 20.212 115.77 19.894 115.854 19.534L117.528 12.28Z" fill="url(#paint0_linear)"/>
<path d="M42.73 16.744L43.6988 16.9918L44.0613 15.5744L42.6091 15.7513L42.73 16.744ZM37.708 17.5L37.4936 16.5233L36.8897 16.6558L36.7384 17.2553L37.708 17.5ZM36.736 21.352L35.7663 21.1073L35.7639 21.1174L36.736 21.352ZM36.358 22.054L35.7768 21.2403L35.7623 21.2506L35.7483 21.2614L36.358 22.054ZM34.576 22.036L35.1674 21.2295L35.1572 21.2223L34.576 22.036ZM34.378 21.028L35.3358 21.3153L35.3421 21.2945L35.3474 21.2735L34.378 21.028ZM36.844 11.29L37.8134 11.5355L37.8141 11.5325L36.844 11.29ZM37.258 10.246L36.5023 9.59106L36.4987 9.59521L37.258 10.246ZM38.968 10.084L38.7049 11.0488L38.7156 11.0516L38.968 10.084ZM39.4 10.408H40.4V10.3664L40.3965 10.325L39.4 10.408ZM39.166 11.38L40.1339 11.6314L40.1361 11.6225L39.166 11.38ZM38.14 15.592L37.1667 15.3626L36.8085 16.8822L38.3387 16.5721L38.14 15.592ZM43.198 14.854L43.2804 15.8506L43.9963 15.7914L44.1688 15.0941L43.198 14.854ZM44.026 11.506L43.0559 11.2635L43.0552 11.2659L44.026 11.506ZM44.512 10.444L43.7687 9.77503L43.7668 9.7772L44.512 10.444ZM45.376 9.976L45.5619 8.99343L45.3707 8.95726L45.1799 8.99542L45.376 9.976ZM46.24 10.192L45.8262 11.1024L45.874 11.1241L45.9238 11.1407L46.24 10.192ZM46.528 10.426L47.4715 10.7575L47.6031 10.3828L47.4418 10.0199L46.528 10.426ZM46.168 11.668L45.1911 11.4543L45.1885 11.4661L45.1862 11.478L46.168 11.668ZM46.042 12.334L47.0252 12.5166L47.0269 12.5075L47.0284 12.4984L46.042 12.334ZM45.484 14.908L44.5131 14.6686L44.3111 15.4876L45.0844 15.8247L45.484 14.908ZM45.07 16.618L44.763 15.6663L44.249 15.8321L44.1058 16.3528L45.07 16.618ZM44.332 19.75L43.3562 19.5315L43.3525 19.5478L43.3494 19.5641L44.332 19.75ZM43.972 21.406L44.9411 21.6527L44.9432 21.6444L44.9452 21.636L43.972 21.406ZM42.6091 15.7513C40.2443 16.0394 38.5285 16.2961 37.4936 16.5233L37.9224 18.4767C38.8555 18.2719 40.4877 18.0246 42.8509 17.7367L42.6091 15.7513ZM36.7384 17.2553L35.7664 21.1073L37.7056 21.5967L38.6776 17.7447L36.7384 17.2553ZM35.7639 21.1174C35.7356 21.2348 35.7091 21.2939 35.698 21.3144C35.6874 21.3342 35.7059 21.2909 35.7768 21.2403L36.9392 22.8677C37.4028 22.5366 37.6054 22.0122 37.7081 21.5866L35.7639 21.1174ZM35.7483 21.2614C35.8054 21.2175 35.8483 21.2007 35.8556 21.1979C35.864 21.1947 35.8537 21.1994 35.8171 21.2063C35.7408 21.2207 35.6085 21.234 35.404 21.234V23.234C35.6795 23.234 35.9462 23.2173 36.1879 23.1717C36.4135 23.1291 36.7097 23.0451 36.9677 22.8466L35.7483 21.2614ZM35.404 21.234C35.2736 21.234 35.1931 21.2221 35.1506 21.2119C35.1083 21.2018 35.1252 21.1987 35.1674 21.2296L33.9846 22.8424C34.4169 23.1594 34.948 23.234 35.404 23.234V21.234ZM35.1572 21.2223C35.1968 21.2505 35.2319 21.2847 35.2605 21.3222C35.2887 21.3592 35.3058 21.3929 35.3155 21.4171C35.3334 21.4619 35.324 21.468 35.324 21.406H33.324C33.324 21.874 33.4591 22.4671 33.9948 22.8497L35.1572 21.2223ZM35.324 21.406C35.324 21.3661 35.3293 21.3372 35.3358 21.3153L33.4202 20.7407C33.3547 20.9588 33.324 21.1819 33.324 21.406H35.324ZM35.3474 21.2735L37.8134 11.5355L35.8746 11.0445L33.4086 20.7825L35.3474 21.2735ZM37.8141 11.5325C37.8738 11.294 37.9289 11.1207 37.9761 11.0016C38.0284 10.8696 38.0501 10.8584 38.0173 10.8968L36.4987 9.59521C36.3219 9.80157 36.2026 10.0484 36.1169 10.2644C36.0261 10.4933 35.9462 10.758 35.8739 11.0475L37.8141 11.5325ZM38.0137 10.9009C37.9831 10.9362 37.9521 10.9605 37.9275 10.9759C37.9038 10.9907 37.8897 10.995 37.892 10.9942C37.8946 10.9934 37.9107 10.9885 37.9442 10.984C37.9777 10.9795 38.0242 10.976 38.086 10.976V8.976C37.586 8.976 36.9432 9.08236 36.5023 9.59107L38.0137 10.9009ZM38.086 10.976C38.3369 10.976 38.5407 11.004 38.7049 11.0488L39.2311 9.11924C38.8673 9.02002 38.4831 8.976 38.086 8.976V10.976ZM38.7156 11.0516C38.793 11.0718 38.7577 11.075 38.683 11.019C38.6401 10.9868 38.5745 10.9277 38.516 10.8331C38.4546 10.734 38.4139 10.6164 38.4035 10.491L40.3965 10.325C40.3612 9.90074 40.123 9.599 39.883 9.419C39.6643 9.25496 39.419 9.16819 39.2204 9.11638L38.7156 11.0516ZM38.4 10.408C38.4 10.3524 38.4049 10.3097 38.4062 10.2978C38.4083 10.2799 38.4104 10.2662 38.4114 10.2594C38.4126 10.2519 38.4136 10.2463 38.4141 10.2434C38.4147 10.2403 38.4151 10.2383 38.4152 10.2378C38.4152 10.2376 38.4138 10.2449 38.4096 10.2635C38.4016 10.2993 38.3884 10.3555 38.3693 10.4349C38.3313 10.5926 38.2737 10.8262 38.1959 11.1375L40.1361 11.6225C40.2143 11.3098 40.2737 11.0694 40.3137 10.9031C40.3336 10.8205 40.3497 10.7522 40.3612 10.701C40.3667 10.6761 40.3726 10.6493 40.3775 10.6243C40.3798 10.6124 40.3834 10.5938 40.3868 10.5726C40.3884 10.562 40.391 10.545 40.3933 10.5244C40.395 10.5099 40.4 10.4651 40.4 10.408H38.4ZM38.1981 11.1286C37.9551 12.064 37.611 13.4771 37.1667 15.3626L39.1133 15.8214C39.557 13.9389 39.8969 12.544 40.1339 11.6314L38.1981 11.1286ZM38.3387 16.5721C40.0812 16.2189 41.7281 15.979 43.2804 15.8506L43.1156 13.8574C41.4759 13.993 39.7508 14.2451 37.9413 14.6119L38.3387 16.5721ZM44.1688 15.0941L44.9968 11.7461L43.0552 11.2659L42.2272 14.6139L44.1688 15.0941ZM44.9961 11.7485C45.0984 11.3394 45.2086 11.1652 45.2572 11.1108L43.7668 9.7772C43.4074 10.1788 43.1936 10.7126 43.0559 11.2635L44.9961 11.7485ZM45.2553 11.113C45.3079 11.0545 45.3931 10.9924 45.5721 10.9566L45.1799 8.99542C44.6389 9.10361 44.1481 9.35346 43.7687 9.77504L45.2553 11.113ZM45.1901 10.9586C45.4018 10.9986 45.5642 11.0336 45.6825 11.0631C45.8153 11.0964 45.8469 11.1118 45.8262 11.1024L46.6538 9.28163C46.3929 9.16302 45.982 9.07291 45.5619 8.99343L45.1901 10.9586ZM45.9238 11.1407C45.9066 11.1349 45.8535 11.1147 45.7894 11.0626C45.7211 11.0071 45.6571 10.9288 45.6142 10.8321L47.4418 10.0199C47.2493 9.58663 46.8863 9.35334 46.5562 9.24332L45.9238 11.1407ZM45.5845 10.0945C45.4175 10.5698 45.2853 11.0235 45.1911 11.4543L47.1449 11.8817C47.2187 11.5445 47.3265 11.1702 47.4715 10.7575L45.5845 10.0945ZM45.1862 11.478C45.1156 11.8431 45.0703 12.0814 45.0556 12.1696L47.0284 12.4984C47.0377 12.4426 47.0764 12.2369 47.1498 11.858L45.1862 11.478ZM45.0588 12.1514C44.9065 12.9713 44.7247 13.8104 44.5131 14.6686L46.4549 15.1474C46.6753 14.2536 46.8655 13.3767 47.0252 12.5166L45.0588 12.1514ZM45.0844 15.8247C45.1548 15.8554 45.2 15.8817 45.2267 15.9C45.2532 15.9181 45.2561 15.9246 45.2477 15.9147C45.2382 15.9034 45.2203 15.8783 45.2058 15.8396C45.1911 15.8004 45.186 15.7635 45.186 15.736H47.186C47.186 14.8126 46.5195 14.2685 45.8836 13.9913L45.0844 15.8247ZM45.186 15.736C45.186 15.6353 45.2153 15.5472 45.251 15.4855C45.2825 15.4311 45.3074 15.4168 45.2869 15.4329C45.2667 15.4489 45.2182 15.482 45.1266 15.5258C45.0364 15.569 44.9169 15.6166 44.763 15.6663L45.377 17.5697C45.7986 17.4337 46.2064 17.2555 46.5271 17.0021C46.8603 16.7387 47.186 16.3172 47.186 15.736H45.186ZM44.1058 16.3528C43.9662 16.8604 43.7149 17.9292 43.3562 19.5315L45.3078 19.9685C45.6691 18.3548 45.9098 17.3356 46.0342 16.8832L44.1058 16.3528ZM43.3494 19.5641C43.2692 19.988 43.1529 20.5242 42.9988 21.176L44.9452 21.636C45.1031 20.9678 45.2268 20.4 45.3146 19.9359L43.3494 19.5641ZM43.0029 21.1593C42.971 21.2848 42.9391 21.3759 42.9115 21.4392C42.8834 21.5035 42.8655 21.5259 42.8671 21.5238C42.8701 21.52 42.8999 21.4843 42.9645 21.4501C43.0335 21.4136 43.1104 21.396 43.18 21.396V23.396C43.7183 23.396 44.144 23.1293 44.4289 22.7732C44.6878 22.4495 44.841 22.046 44.9411 21.6527L43.0029 21.1593ZM43.18 21.396C42.9404 21.396 42.7525 21.3818 42.6094 21.3595C42.4634 21.3368 42.3887 21.3093 42.3614 21.2966C42.3365 21.2849 42.3862 21.3023 42.4417 21.38C42.504 21.4674 42.524 21.5616 42.524 21.622H40.524C40.524 21.9404 40.613 22.2604 40.8133 22.5413C41.0068 22.8125 41.2635 22.9911 41.5146 23.1084C41.9909 23.3311 42.5817 23.396 43.18 23.396V21.396ZM42.524 21.622C42.524 21.6812 42.5183 21.725 42.5176 21.7303C42.5167 21.7376 42.5159 21.7429 42.5155 21.7457C42.5151 21.7486 42.5148 21.7503 42.5148 21.7504C42.5148 21.7504 42.5153 21.7472 42.5167 21.7401C42.518 21.7332 42.5198 21.7241 42.5222 21.7123C42.5324 21.6632 42.5491 21.5878 42.5735 21.4822C42.6221 21.2726 42.6961 20.9666 42.7963 20.5615C42.9963 19.7525 43.297 18.5631 43.6988 16.9918L41.7612 16.4962C41.359 18.0689 41.0567 19.2645 40.8547 20.0815C40.7539 20.4894 40.6771 20.8066 40.6252 21.0305C40.5994 21.1417 40.5785 21.2356 40.5634 21.3084C40.5561 21.3442 40.5487 21.382 40.5427 21.4175C40.5411 21.4265 40.524 21.519 40.524 21.622H42.524ZM54.6101 18.004L55.604 18.1144L55.7502 16.7985L54.4445 17.0178L54.6101 18.004ZM50.8481 18.724L50.6233 17.7496L50.2224 17.8421L50.0027 18.19L50.8481 18.724ZM50.2901 19.642L51.1598 20.1356L51.1653 20.1259L51.1706 20.1161L50.2901 19.642ZM49.6061 20.758L48.7792 20.1957L48.7741 20.2033L49.6061 20.758ZM48.9761 21.532L48.269 20.8249H48.269L48.9761 21.532ZM48.3461 22.072L47.8054 21.2308L47.791 21.2401L47.7769 21.2498L48.3461 22.072ZM46.8341 22L46.2973 22.8437L46.3193 22.8577L46.3421 22.8706L46.8341 22ZM46.4381 21.496L45.731 20.7889L45.4381 21.0818V21.496H46.4381ZM46.8341 20.704L47.737 21.134L47.7409 21.1257L46.8341 20.704ZM48.1661 18.778L48.9304 19.4229L49.1661 19.1435V18.778H48.1661ZM48.0761 18.418L47.1531 18.8026L48.0761 18.418ZM49.6241 16.906L50.0349 17.8177L50.2953 17.7004L50.4545 17.4632L49.6241 16.906ZM51.5501 14.206L50.7579 13.5957L50.7527 13.6026L51.5501 14.206ZM54.0521 11.056L54.8285 11.6863L54.833 11.6807L54.0521 11.056ZM54.9701 10.318L54.5115 9.42938H54.5115L54.9701 10.318ZM56.9501 10.138L57.3013 9.20167L56.9501 10.138ZM57.3101 10.426L56.3817 10.7974L56.3971 10.836L56.4157 10.8732L57.3101 10.426ZM57.4001 10.93L58.3914 11.0622L58.4001 10.9964V10.93H57.4001ZM57.3101 11.74L58.3025 11.863L58.306 11.8348L58.3079 11.8065L57.3101 11.74ZM56.8961 15.484L55.9003 15.3924L55.8994 15.4029L56.8961 15.484ZM56.8961 21.19L57.8884 21.314L57.9027 21.1994L57.8906 21.0845L56.8961 21.19ZM56.5181 21.982L57.2441 22.6697L57.2529 22.6605L57.2614 22.651L56.5181 21.982ZM54.6641 21.91L53.8099 22.4299L53.818 22.4432L53.8265 22.4563L54.6641 21.91ZM52.2701 16.654L51.4388 16.0982L50.0529 18.1711L52.4871 17.6302L52.2701 16.654ZM53.2601 16.492L53.3941 17.483L53.4013 17.482L53.4085 17.4809L53.2601 16.492ZM54.7001 16.276L54.8485 17.2649L55.6459 17.1453L55.6981 16.3406L54.7001 16.276ZM55.0781 12.676L56.0593 12.869L56.8013 9.09716L54.3154 12.0293L55.0781 12.676ZM54.4445 17.0178C52.8637 17.2833 51.5874 17.5271 50.6233 17.7496L51.073 19.6984C51.9808 19.4889 53.2125 19.2527 54.7758 18.9902L54.4445 17.0178ZM50.0027 18.19C49.718 18.6408 49.5129 18.9761 49.4097 19.1679L51.1706 20.1161C51.2354 19.9959 51.4023 19.7192 51.6936 19.258L50.0027 18.19ZM49.4205 19.1484C49.1769 19.5775 48.9633 19.9249 48.7792 20.1957L50.4331 21.3203C50.6569 20.9911 50.8994 20.5945 51.1598 20.1356L49.4205 19.1484ZM48.7741 20.2033C48.616 20.4405 48.4472 20.6467 48.269 20.8249L49.6832 22.2391C49.9611 21.9613 50.2123 21.6515 50.4382 21.3127L48.7741 20.2033ZM48.269 20.8249C48.0348 21.0591 47.884 21.1803 47.8054 21.2308L48.8869 22.9132C49.1443 22.7477 49.4135 22.5089 49.6832 22.2391L48.269 20.8249ZM47.7769 21.2498C47.7826 21.2459 47.7889 21.2422 47.7954 21.2391C47.802 21.236 47.8073 21.2342 47.8108 21.2332C47.8182 21.231 47.8125 21.234 47.7881 21.234V23.234C48.1784 23.234 48.5696 23.1335 48.9154 22.8942L47.7769 21.2498ZM47.7881 21.234C47.5768 21.234 47.4327 21.1896 47.3262 21.1294L46.3421 22.8706C46.7876 23.1224 47.2794 23.234 47.7881 23.234V21.234ZM47.371 21.1563C47.2942 21.1074 47.2953 21.0944 47.3235 21.1302C47.3577 21.1738 47.4381 21.3011 47.4381 21.496H45.4381C45.4381 22.217 45.9856 22.6453 46.2973 22.8437L47.371 21.1563ZM47.1452 22.2031C47.2115 22.1368 47.2542 22.075 47.2653 22.0591C47.2835 22.0329 47.2978 22.0098 47.307 21.9947C47.3256 21.9641 47.3425 21.9336 47.3557 21.9093C47.3829 21.859 47.4149 21.7966 47.4496 21.7272C47.5199 21.5865 47.6162 21.3876 47.737 21.1339L45.9313 20.2741C45.8121 20.5244 45.7224 20.7095 45.6607 20.8328C45.6294 20.8954 45.6088 20.935 45.5971 20.9567C45.5908 20.9684 45.5915 20.9664 45.5974 20.9568C45.6002 20.9522 45.609 20.9377 45.6225 20.9183C45.6289 20.9092 45.6678 20.8522 45.731 20.7889L47.1452 22.2031ZM47.7409 21.1257C47.9254 20.7289 48.3031 20.1664 48.9304 19.4229L47.4018 18.1331C46.7332 18.9256 46.2229 19.6471 45.9274 20.2823L47.7409 21.1257ZM49.1661 18.778C49.1661 18.493 49.0822 18.2325 48.9992 18.0334L47.1531 18.8026C47.1605 18.8206 47.1657 18.8344 47.169 18.8442C47.1724 18.8541 47.1735 18.8587 47.1735 18.8585C47.1735 18.8584 47.1718 18.8517 47.17 18.8391C47.1683 18.8265 47.1661 18.8057 47.1661 18.778H49.1661ZM48.9992 18.0334C48.9717 17.9674 48.9568 17.9288 48.9504 17.9107C48.9468 17.9008 48.95 17.9086 48.9553 17.9276C48.958 17.9372 48.9638 17.9591 48.9696 17.989C48.9725 18.0044 48.9763 18.0263 48.9795 18.053C48.9825 18.0786 48.9861 18.1178 48.9861 18.166H46.9861C46.9861 18.3211 47.0238 18.447 47.0282 18.4629C47.041 18.5089 47.0554 18.5512 47.0669 18.5833C47.0904 18.6492 47.1205 18.7246 47.1531 18.8026L48.9992 18.0334ZM48.9861 18.166C48.9861 18.3487 48.9138 18.4565 48.9035 18.4709C48.8944 18.4837 48.9147 18.4524 49.0054 18.3826C49.1879 18.2422 49.5159 18.0516 50.0349 17.8177L49.2134 15.9943C48.6404 16.2524 48.1494 16.5178 47.7859 16.7974C47.4858 17.0282 46.9861 17.4828 46.9861 18.166H48.9861ZM50.4545 17.4632C51.0558 16.5672 51.6868 15.6826 52.3475 14.8094L50.7527 13.6026C50.0695 14.5054 49.4165 15.4208 48.7938 16.3488L50.4545 17.4632ZM52.3424 14.8162C53.0196 13.937 53.848 12.894 54.8285 11.6863L53.2758 10.4257C52.2883 11.642 51.4487 12.699 50.7579 13.5958L52.3424 14.8162ZM54.833 11.6807C54.9777 11.4998 55.1702 11.3401 55.4288 11.2066L54.5115 9.42938C54.0261 9.67993 53.6066 10.0122 53.2713 10.4313L54.833 11.6807ZM55.4288 11.2066C55.677 11.0785 55.8928 11.03 56.0861 11.03V9.03C55.5355 9.03 55.0073 9.17347 54.5115 9.42938L55.4288 11.2066ZM56.0861 11.03C56.249 11.03 56.3739 11.0378 56.4661 11.0493C56.5618 11.0612 56.5995 11.0745 56.599 11.0743L57.3013 9.20167C56.9378 9.06537 56.5042 9.03 56.0861 9.03V11.03ZM56.599 11.0743C56.6271 11.0849 56.6042 11.0807 56.5594 11.0449C56.5101 11.0054 56.433 10.9257 56.3817 10.7974L58.2386 10.0546C58.0383 9.55392 57.6053 9.31567 57.3013 9.20167L56.599 11.0743ZM56.4157 10.8732C56.404 10.8498 56.3978 10.8322 56.395 10.8233C56.3922 10.8143 56.3922 10.8119 56.3932 10.8178C56.3956 10.8309 56.4001 10.8662 56.4001 10.93H58.4001C58.4001 10.643 58.3638 10.2973 58.2046 9.97879L56.4157 10.8732ZM56.4089 10.7978C56.3603 11.1625 56.3266 11.4592 56.3124 11.6735L58.3079 11.8065C58.3176 11.6608 58.344 11.4175 58.3914 11.0622L56.4089 10.7978ZM56.3177 11.617C56.1369 13.0757 55.9976 14.3347 55.9003 15.3924L57.8919 15.5756C57.9867 14.5453 58.1234 13.3083 58.3025 11.863L56.3177 11.617ZM55.8994 15.4029C55.8132 16.4618 55.7701 17.5208 55.7701 18.58H57.7701C57.7701 17.5752 57.811 16.5702 57.8928 15.5651L55.8994 15.4029ZM55.7701 18.58C55.7701 19.5568 55.8134 20.4626 55.9017 21.2955L57.8906 21.0845C57.8109 20.3334 57.7701 19.4992 57.7701 18.58H55.7701ZM55.9039 21.066C55.896 21.1286 55.8702 21.2071 55.7748 21.313L57.2614 22.651C57.5981 22.2769 57.8242 21.8274 57.8884 21.314L55.9039 21.066ZM55.7922 21.2943C55.7764 21.311 55.7652 21.32 55.7594 21.3242C55.7538 21.3283 55.7524 21.3286 55.755 21.3274C55.7577 21.3261 55.7614 21.3249 55.7648 21.3242C55.7681 21.3235 55.7677 21.324 55.7621 21.324V23.324C56.3512 23.324 56.8582 23.077 57.2441 22.6697L55.7922 21.2943ZM55.7621 21.324C55.561 21.324 55.4606 21.2977 55.4264 21.2848C55.4125 21.2795 55.4198 21.2803 55.4382 21.2943C55.4579 21.3092 55.4815 21.3326 55.5018 21.3637L53.8265 22.4563C54.2892 23.1658 55.1034 23.324 55.7621 23.324V21.324ZM55.5183 21.3901C55.5212 21.3948 55.489 21.3399 55.4594 21.1753C55.431 21.0172 55.4121 20.7977 55.4121 20.506H53.4121C53.4121 21.1943 53.4895 21.9035 53.8099 22.4299L55.5183 21.3901ZM55.4121 20.506C55.4121 20.0877 55.4719 19.3038 55.604 18.1144L53.6163 17.8936C53.4844 19.0802 53.4121 19.9643 53.4121 20.506H55.4121ZM52.4871 17.6302C52.6602 17.5917 52.9558 17.5422 53.3941 17.483L53.1262 15.501C52.6765 15.5618 52.3121 15.6203 52.0532 15.6778L52.4871 17.6302ZM53.4085 17.4809L54.8485 17.2649L54.5518 15.2871L53.1118 15.5031L53.4085 17.4809ZM55.6981 16.3406C55.8058 14.6763 55.9289 13.5323 56.0593 12.869L54.0969 12.483C53.9394 13.2837 53.8105 14.5397 53.7022 16.2114L55.6981 16.3406ZM54.3154 12.0293C53.8031 12.6336 52.834 14.0114 51.4388 16.0982L53.1015 17.2098C54.5143 15.0965 55.4172 13.8224 55.8409 13.3227L54.3154 12.0293ZM63.4886 20.83L62.5155 20.5998L62.5138 20.6072L63.4886 20.83ZM63.0386 21.802L62.2934 21.1352L62.2834 21.1464L62.2737 21.1579L63.0386 21.802ZM61.2566 21.964L60.6388 22.7503L60.6695 22.7744L60.7019 22.7961L61.2566 21.964ZM61.0586 20.938L62.0165 21.2253L62.0231 21.2033L62.0287 21.181L61.0586 20.938ZM63.2186 12.316L64.1887 12.559L64.5001 11.316H63.2186V12.316ZM62.0486 12.442L62.1263 13.439L62.1419 13.4378L62.1574 13.4361L62.0486 12.442ZM60.3206 12.622L59.9903 13.5659L60.2536 13.658L60.5267 13.6005L60.3206 12.622ZM59.7626 12.244L58.9306 12.7987L58.9522 12.8312L58.9763 12.8618L59.7626 12.244ZM59.7806 11.074L58.9997 10.4493L58.9943 10.4562L59.7806 11.074ZM60.2846 10.678L60.0885 9.69742L59.9827 9.71859L59.8838 9.76184L60.2846 10.678ZM66.4586 10.174L66.4176 9.17483L66.4131 9.17504L66.4586 10.174ZM68.2586 10.066L68.6595 9.14984L68.4142 9.04256L68.1482 9.07212L68.2586 10.066ZM68.7446 10.462L67.9382 11.0534L67.9607 11.084L67.9854 11.1128L68.7446 10.462ZM68.6366 11.632L67.95 10.905V10.905L68.6366 11.632ZM67.8986 12.064L67.9368 13.0633L68.066 13.0583L68.1898 13.0207L67.8986 12.064ZM65.5406 12.154L65.5025 11.1547L64.7425 11.1837L64.5675 11.9238L65.5406 12.154ZM62.5138 20.6072C62.441 20.9258 62.3478 21.0744 62.2934 21.1352L63.7839 22.4688C64.1375 22.0736 64.3443 21.5742 64.4635 21.0528L62.5138 20.6072ZM62.2737 21.1579C62.306 21.1196 62.334 21.1117 62.3187 21.1172C62.296 21.1253 62.2257 21.144 62.0846 21.144V23.144C62.6765 23.144 63.3437 22.9922 63.8036 22.4461L62.2737 21.1579ZM62.0846 21.144C61.949 21.144 61.8613 21.1327 61.8111 21.1218C61.7598 21.1107 61.7709 21.105 61.8113 21.132L60.7019 22.7961C61.1265 23.0791 61.6412 23.144 62.0846 23.144V21.144ZM61.8745 21.1777C61.9059 21.2024 61.9337 21.2315 61.9563 21.2627C61.9787 21.2936 61.9921 21.3212 61.9996 21.3406C62.0137 21.3766 62.0046 21.3768 62.0046 21.316H60.0046C60.0046 21.792 60.1426 22.3604 60.6388 22.7503L61.8745 21.1777ZM62.0046 21.316C62.0046 21.2761 62.0099 21.2472 62.0165 21.2253L60.1008 20.6507C60.0354 20.8688 60.0046 21.0919 60.0046 21.316H62.0046ZM62.0287 21.181L64.1887 12.559L62.2486 12.073L60.0886 20.695L62.0287 21.181ZM63.2186 11.316C63.19 11.316 63.1673 11.3173 63.1628 11.3175C63.154 11.318 63.1469 11.3185 63.1429 11.3188C63.1347 11.3194 63.1277 11.32 63.1237 11.3204C63.1151 11.3212 63.1061 11.322 63.0983 11.3228C63.0821 11.3244 63.0605 11.3266 63.0349 11.3293C62.983 11.3347 62.9078 11.3427 62.8101 11.3532C62.6142 11.3743 62.324 11.4059 61.9399 11.4479L62.1574 13.4361C62.5412 13.3941 62.8301 13.3627 63.0242 13.3418C63.1214 13.3313 63.194 13.3235 63.2427 13.3185C63.2672 13.3159 63.2842 13.3142 63.2945 13.3131C63.3001 13.3126 63.3014 13.3125 63.3002 13.3126C63.2999 13.3126 63.2959 13.313 63.2899 13.3134C63.287 13.3136 63.2808 13.3141 63.2728 13.3145C63.269 13.3147 63.2469 13.316 63.2186 13.316V11.316ZM61.971 11.445C61.071 11.5151 60.4205 11.579 60.1146 11.6434L60.5267 13.6005C60.6767 13.569 61.1783 13.5129 62.1263 13.439L61.971 11.445ZM60.651 11.6781C60.602 11.661 60.5748 11.6453 60.562 11.6366C60.5556 11.6322 60.5521 11.6292 60.5506 11.6279C60.5498 11.6271 60.5494 11.6267 60.5492 11.6265C60.5491 11.6263 60.549 11.6263 60.549 11.6262C60.549 11.6262 60.549 11.6262 60.549 11.6262L58.9763 12.8618C59.2469 13.2062 59.605 13.431 59.9903 13.5659L60.651 11.6781ZM60.5947 11.6893C60.5926 11.6862 60.591 11.6833 60.5892 11.6768C60.5871 11.6695 60.5826 11.6502 60.5826 11.614H58.5826C58.5826 12.029 58.6893 12.4367 58.9306 12.7987L60.5947 11.6893ZM60.5826 11.614C60.5826 11.6353 60.5785 11.6588 60.571 11.6793C60.564 11.6985 60.5585 11.7026 60.567 11.6918L58.9943 10.4562C58.7404 10.7793 58.5826 11.1726 58.5826 11.614H60.5826ZM60.5615 11.6987C60.6146 11.6323 60.6563 11.6069 60.6855 11.5942L59.8838 9.76184C59.529 9.91708 59.2347 10.1557 58.9998 10.4493L60.5615 11.6987ZM60.4808 11.6586C61.3524 11.4842 63.3312 11.3177 66.5042 11.173L66.4131 9.17504C63.274 9.31826 61.1368 9.48776 60.0885 9.69742L60.4808 11.6586ZM66.4997 11.1732C67.3728 11.1373 68.0057 11.1003 68.3691 11.0599L68.1482 9.07212C67.8636 9.10374 67.2965 9.13872 66.4176 9.17484L66.4997 11.1732ZM67.8578 10.9822C67.8778 10.9909 67.9034 11.0059 67.9382 11.0534L69.551 9.87063C69.3219 9.55812 69.0235 9.3091 68.6595 9.14984L67.8578 10.9822ZM67.9854 11.1128C67.996 11.1251 67.9882 11.1194 67.9782 11.0944C67.9674 11.0674 67.9606 11.0345 67.9606 11.002H69.9606C69.9606 10.5354 69.7782 10.1312 69.5039 9.81121L67.9854 11.1128ZM67.9606 11.002C67.9606 10.9717 67.9645 10.9428 67.9711 10.9171C67.9775 10.8918 67.9853 10.874 67.9904 10.8642C67.9996 10.8463 67.996 10.8615 67.95 10.905L69.3233 12.359C69.6619 12.0392 69.9606 11.584 69.9606 11.002H67.9606ZM67.95 10.905C67.8429 11.0062 67.7312 11.0697 67.6075 11.1073L68.1898 13.0207C68.6181 12.8903 68.9984 12.6658 69.3233 12.359L67.95 10.905ZM67.8605 11.0647L65.5025 11.1547L65.5788 13.1533L67.9368 13.0633L67.8605 11.0647ZM64.5675 11.9238L62.5155 20.5998L64.4618 21.0602L66.5138 12.3842L64.5675 11.9238ZM76.6289 13.864H75.6289V13.8801L75.6294 13.8962L76.6289 13.864ZM76.9889 14.728L76.3221 15.4732L76.3427 15.4916L76.3642 15.5089L76.9889 14.728ZM78.0869 15.376L78.5342 14.4815L78.5253 14.4772L78.0869 15.376ZM78.6269 15.646L79.1069 14.7687L79.0907 14.7599L79.0741 14.7516L78.6269 15.646ZM80.1209 16.564L80.7123 15.7576V15.7576L80.1209 16.564ZM81.0389 17.626L80.1692 18.1196L80.1742 18.1284L80.1794 18.1371L81.0389 17.626ZM80.8049 21.01L80.0444 20.3607L80.043 20.3624L80.8049 21.01ZM79.0949 22.108L78.7694 21.1625L78.76 21.1657L78.7507 21.1691L79.0949 22.108ZM74.7749 22.126L75.1689 21.2068L75.1595 21.2029L74.7749 22.126ZM73.3889 21.208L72.6479 21.8795L72.6532 21.8854L72.6586 21.8912L73.3889 21.208ZM73.2449 19.246L72.5941 18.4867L73.2449 19.246ZM74.3249 18.796L75.3104 18.6261L75.1393 17.6338L74.1483 17.8117L74.3249 18.796ZM74.8469 19.732L74.155 20.454L74.1624 20.461L74.1699 20.4679L74.8469 19.732ZM75.8729 20.398L75.4721 21.3142L75.4843 21.3195L75.4965 21.3245L75.8729 20.398ZM78.3209 20.254L77.8064 19.3964L77.7954 19.4032L78.3209 20.254ZM78.9509 19.21H79.9509V19.1957L79.9505 19.1814L78.9509 19.21ZM78.5189 18.202L77.8277 18.9246L77.8361 18.9327L77.8447 18.9405L78.5189 18.202ZM77.1869 17.302L76.6983 18.1745L76.7057 18.1786L77.1869 17.302ZM76.7369 17.05L76.2317 17.913L76.24 17.9178L76.2483 17.9225L76.7369 17.05ZM74.6129 15.25L73.751 15.757L73.7565 15.7663L73.7621 15.7755L74.6129 15.25ZM76.3769 10.642L76.798 11.549L76.8046 11.5459L76.8112 11.5428L76.3769 10.642ZM80.4809 10.516L80.0671 11.4264L80.0748 11.4298L80.4809 10.516ZM81.7409 11.452L80.9529 12.0676L80.9577 12.0737L80.9625 12.0798L81.7409 11.452ZM81.8489 13.36L81.2048 12.5951L81.1946 12.6037L81.1846 12.6126L81.8489 13.36ZM80.7869 13.558L79.9549 14.1127L80.0098 14.1951L80.0798 14.2651L80.7869 13.558ZM80.6789 13.342L79.7174 13.6167L79.7234 13.6376L79.7302 13.6582L80.6789 13.342ZM80.6249 13.162L81.5736 12.8458L81.5511 12.7784L81.5193 12.7148L80.6249 13.162ZM79.8329 12.316L79.3231 13.1763L79.3417 13.1873L79.3607 13.1975L79.8329 12.316ZM77.2049 12.568L76.521 11.8385V11.8385L77.2049 12.568ZM75.6294 13.8962C75.6482 14.4779 75.8475 15.0486 76.3221 15.4732L77.6557 13.9828C77.6553 13.9823 77.6547 13.9834 77.651 13.9744C77.6456 13.9615 77.6312 13.9194 77.6284 13.8318L75.6294 13.8962ZM76.3642 15.5089C76.6898 15.7693 77.1331 16.0233 77.6485 16.2748L78.5253 14.4772C78.0568 14.2487 77.768 14.0707 77.6136 13.9471L76.3642 15.5089ZM77.6397 16.2704L78.1797 16.5404L79.0741 14.7516L78.5341 14.4816L77.6397 16.2704ZM78.1469 16.5233C78.7649 16.8614 79.22 17.1434 79.5296 17.3704L80.7123 15.7576C80.3018 15.4566 79.7609 15.1266 79.1069 14.7687L78.1469 16.5233ZM79.5296 17.3704C79.7605 17.5398 79.9769 17.7808 80.1692 18.1196L81.9086 17.1324C81.5969 16.5832 81.2013 16.1162 80.7123 15.7576L79.5296 17.3704ZM80.1794 18.1371C80.3308 18.3917 80.4349 18.7506 80.4349 19.264H82.4349C82.4349 18.4814 82.2751 17.7483 81.8985 17.1149L80.1794 18.1371ZM80.4349 19.264C80.4349 19.7081 80.3034 20.0573 80.0444 20.3607L81.5655 21.6593C82.1464 20.9787 82.4349 20.1639 82.4349 19.264H80.4349ZM80.043 20.3624C79.775 20.6776 79.3705 20.9555 78.7694 21.1625L79.4204 23.0535C80.2833 22.7565 81.0188 22.3024 81.5669 21.6576L80.043 20.3624ZM78.7507 21.1691C78.1582 21.3863 77.4674 21.504 76.6649 21.504V23.504C77.6624 23.504 78.5916 23.3577 79.4392 23.0469L78.7507 21.1691ZM76.6649 21.504C76.1214 21.504 75.6261 21.4028 75.1688 21.2069L74.381 23.0451C75.0997 23.3532 75.8645 23.504 76.6649 23.504V21.504ZM75.1595 21.2029C74.6857 21.0055 74.3511 20.7727 74.1192 20.5248L72.6586 21.8912C73.1228 22.3873 73.7121 22.7665 74.3903 23.0491L75.1595 21.2029ZM74.1299 20.5365C73.8829 20.264 73.8669 20.1148 73.8669 20.074H71.8669C71.8669 20.7772 72.1989 21.384 72.6479 21.8795L74.1299 20.5365ZM73.8669 20.074C73.8669 20.0527 73.8689 20.0403 73.87 20.0349C73.8711 20.0298 73.8717 20.0289 73.8711 20.0303C73.8705 20.0317 73.8704 20.0313 73.8725 20.0285C73.8749 20.0254 73.8815 20.0174 73.8957 20.0053L72.5941 18.4867C72.1174 18.8954 71.8669 19.4502 71.8669 20.074H73.8669ZM73.8957 20.0053C73.9664 19.9447 74.1373 19.8457 74.5016 19.7803L74.1483 17.8117C73.5765 17.9143 73.0275 18.1153 72.5941 18.4867L73.8957 20.0053ZM73.3395 18.9659C73.4404 19.5514 73.7336 20.0501 74.155 20.454L75.5388 19.01C75.3843 18.8619 75.3294 18.7366 75.3104 18.6261L73.3395 18.9659ZM74.1699 20.4679C74.5536 20.821 74.9896 21.1031 75.4721 21.3142L76.2737 19.4818C75.9883 19.3569 75.7402 19.195 75.524 18.9961L74.1699 20.4679ZM75.4965 21.3245C75.9576 21.5117 76.4308 21.632 76.8989 21.632V19.632C76.7671 19.632 76.5563 19.5963 76.2493 19.4715L75.4965 21.3245ZM76.8989 21.632C77.6005 21.632 78.2612 21.4662 78.8464 21.1048L77.7954 19.4032C77.5646 19.5458 77.2773 19.632 76.8989 19.632V21.632ZM78.8354 21.1115C79.5193 20.7012 79.9509 20.0468 79.9509 19.21H77.9509C77.9509 19.2673 77.9396 19.2835 77.9372 19.2873C77.9322 19.2956 77.9049 19.3374 77.8064 19.3965L78.8354 21.1115ZM79.9505 19.1814C79.9318 18.5274 79.6951 17.9218 79.1932 17.4635L77.8447 18.9405C77.8947 18.9862 77.946 19.0526 77.9513 19.2386L79.9505 19.1814ZM79.2101 17.4794C78.8393 17.1246 78.3047 16.7749 77.6682 16.4254L76.7057 18.1786C77.2932 18.5011 77.6465 18.7514 77.8277 18.9246L79.2101 17.4794ZM77.6755 16.4295L77.2255 16.1775L76.2483 17.9225L76.6983 18.1745L77.6755 16.4295ZM77.2421 16.187C76.7722 15.9119 76.392 15.6628 76.0949 15.44L74.8949 17.04C75.2698 17.3212 75.7177 17.6121 76.2317 17.913L77.2421 16.187ZM76.0949 15.44C75.8721 15.2729 75.6592 15.0411 75.4637 14.7245L73.7621 15.7755C74.0706 16.2749 74.4458 16.7031 74.8949 17.04L76.0949 15.44ZM75.4749 14.743C75.3412 14.5158 75.2529 14.212 75.2529 13.792H73.2529C73.2529 14.5 73.4047 15.1682 73.751 15.757L75.4749 14.743ZM75.2529 13.792C75.2529 13.3013 75.3827 12.879 75.6402 12.4969L73.9817 11.3791C73.4952 12.101 73.2529 12.9147 73.2529 13.792H75.2529ZM75.6402 12.4969C75.8992 12.1126 76.2721 11.7932 76.798 11.549L75.9558 9.73499C75.1378 10.1148 74.4667 10.6594 73.9817 11.3791L75.6402 12.4969ZM76.8112 11.5428C77.3279 11.2937 77.9436 11.156 78.6809 11.156V9.156C77.6903 9.156 76.77 9.34234 75.9426 9.74123L76.8112 11.5428ZM78.6809 11.156C79.2327 11.156 79.6881 11.2541 80.0671 11.4264L80.8947 9.60563C80.2177 9.29791 79.4732 9.156 78.6809 9.156V11.156ZM80.0748 11.4298C80.4966 11.6173 80.7732 11.8376 80.9529 12.0676L82.5289 10.8364C82.1087 10.2984 81.5453 9.89474 80.8871 9.60219L80.0748 11.4298ZM80.9625 12.0798C81.1551 12.3185 81.1909 12.4818 81.1909 12.586H83.1909C83.1909 11.9222 82.9268 11.3295 82.5193 10.8242L80.9625 12.0798ZM81.1909 12.586C81.1909 12.6084 81.189 12.6205 81.1882 12.6244C81.1875 12.628 81.1877 12.6252 81.1907 12.6183C81.1922 12.6151 81.194 12.6116 81.1961 12.608C81.1982 12.6044 81.2004 12.6012 81.2024 12.5985C81.2066 12.593 81.2084 12.592 81.2048 12.5951L82.4931 14.1249C82.968 13.7249 83.1909 13.1759 83.1909 12.586H81.1909ZM81.1846 12.6126C81.1591 12.6352 81.1402 12.648 81.0749 12.648V14.648C81.6096 14.648 82.1067 14.4688 82.5133 14.1074L81.1846 12.6126ZM81.0749 12.648C81.0804 12.648 81.1289 12.6481 81.2022 12.671C81.28 12.6953 81.3904 12.7472 81.494 12.8509L80.0798 14.2651C80.409 14.5942 80.8212 14.648 81.0749 14.648V12.648ZM81.619 13.0033C81.6135 12.9951 81.6199 13.0026 81.6276 13.0258L79.7302 13.6582C79.786 13.8254 79.8643 13.9769 79.9549 14.1127L81.619 13.0033ZM81.6404 13.0673C81.6162 12.9825 81.5931 12.9042 81.5736 12.8458L79.6762 13.4782C79.6808 13.4918 79.6936 13.5335 79.7174 13.6167L81.6404 13.0673ZM81.5193 12.7148C81.247 12.1702 80.846 11.7242 80.3051 11.4345L79.3607 13.1975C79.4919 13.2678 79.6188 13.3858 79.7305 13.6092L81.5193 12.7148ZM80.3427 11.4557C79.8664 11.1734 79.3426 11.028 78.7889 11.028V13.028C78.9792 13.028 79.1514 13.0745 79.3231 13.1763L80.3427 11.4557ZM78.7889 11.028C77.9359 11.028 77.1375 11.2605 76.521 11.8385L77.8889 13.2975C78.0404 13.1555 78.298 13.028 78.7889 13.028V11.028ZM76.521 11.8385C75.9454 12.3781 75.6289 13.0701 75.6289 13.864H77.6289C77.6289 13.6499 77.6964 13.4779 77.8889 13.2975L76.521 11.8385ZM83.4542 11.704L82.7471 10.9969H82.747L83.4542 11.704ZM83.8862 11.416L84.309 12.3222L84.3561 12.3002L84.4007 12.2735L83.8862 11.416ZM84.5342 11.092L84.1097 10.1865L84.0986 10.1918L84.5342 11.092ZM85.6322 10.678L85.8981 11.642L86.3512 11.517L86.5441 11.0884L85.6322 10.678ZM86.1182 10.084L85.5535 9.25869L85.543 9.26587L85.5327 9.27332L86.1182 10.084ZM87.4862 9.976L86.9493 10.8197L86.9777 10.8378L87.0073 10.8539L87.4862 9.976ZM87.7562 10.264L86.8277 10.6354L87.175 11.5038L88.0647 11.2152L87.7562 10.264ZM91.3742 10.552L90.8624 11.4111L90.873 11.4175L90.8839 11.4236L91.3742 10.552ZM92.6702 11.902L91.7757 12.3492L91.7794 12.3566L91.7832 12.3639L92.6702 11.902ZM93.0662 14.44L94.0512 14.6126L94.0539 14.597L94.0561 14.5814L93.0662 14.44ZM86.0282 18.634L86.1049 17.6369L85.2794 17.5734L85.0629 18.3726L86.0282 18.634ZM85.7942 19.498L86.7589 19.7611L86.7594 19.7594L85.7942 19.498ZM85.4162 20.92L86.391 21.1428L86.4162 21.0328V20.92H85.4162ZM84.9662 21.892L84.2209 21.2252L84.2109 21.2364L84.2012 21.2479L84.9662 21.892ZM83.1842 22.036L83.7756 21.2295L83.7654 21.2223L83.1842 22.036ZM82.9862 21.028L83.944 21.3153L83.9494 21.2972L83.9542 21.2788L82.9862 21.028ZM85.1642 12.622L86.1322 12.8728L86.5721 11.1751L84.887 11.6612L85.1642 12.622ZM83.7422 13.36L83.005 14.0357L83.6975 14.7912L84.4358 14.0803L83.7422 13.36ZM83.4182 12.802L82.4603 13.0893L82.4692 13.1188L82.4798 13.1477L83.4182 12.802ZM86.4062 16.96L85.4298 16.744L85.1825 17.8615L86.3231 17.9565L86.4062 16.96ZM89.7182 16.33L89.1774 15.4888L89.1705 15.4933L89.7182 16.33ZM91.0142 14.332L91.9921 14.5406L91.9959 14.5233L91.9989 14.5058L91.0142 14.332ZM90.5102 12.388L89.8399 13.1301L89.8466 13.1362L89.8534 13.1421L90.5102 12.388ZM87.5582 12.136L87.2727 11.1776L86.7272 11.3401L86.5884 11.892L87.5582 12.136ZM84.3102 12.1C84.3102 12.1103 84.3087 12.1541 84.2859 12.2167C84.2618 12.2832 84.2202 12.3522 84.1613 12.4111L82.747 10.9969C82.4211 11.3229 82.3102 11.7335 82.3102 12.1H84.3102ZM84.1613 12.4111C84.1663 12.4061 84.2046 12.3709 84.309 12.3222L83.4633 10.5098C83.2077 10.6291 82.9581 10.7859 82.7471 10.9969L84.1613 12.4111ZM84.4007 12.2735C84.3882 12.281 84.3902 12.2792 84.423 12.2621C84.4504 12.2478 84.489 12.2281 84.5404 12.2024C84.6427 12.1512 84.7853 12.0814 84.9697 11.9922L84.0986 10.1918C83.7516 10.3598 83.4809 10.493 83.3717 10.5585L84.4007 12.2735ZM84.9586 11.9975C85.3001 11.8374 85.6129 11.7207 85.8981 11.642L85.3662 9.71401C84.9554 9.82734 84.5362 9.98662 84.1097 10.1865L84.9586 11.9975ZM86.5441 11.0884C86.5793 11.0102 86.6278 10.9495 86.7036 10.8947L85.5327 9.27332C85.1765 9.53053 84.901 9.86585 84.7202 10.2676L86.5441 11.0884ZM86.6828 10.9093C86.7059 10.8935 86.7832 10.85 86.9822 10.85V8.85C86.4851 8.85 85.9864 8.9625 85.5535 9.25869L86.6828 10.9093ZM86.9822 10.85C87.0165 10.85 87.0265 10.8536 87.0186 10.8516C87.0094 10.8493 86.9831 10.8412 86.9493 10.8197L88.023 9.13234C87.6886 8.91951 87.3195 8.85 86.9822 8.85V10.85ZM87.0073 10.8539C86.993 10.8461 86.9604 10.8257 86.9231 10.7859C86.8845 10.7447 86.8508 10.6932 86.8277 10.6354L88.6846 9.89261C88.5365 9.52222 88.2662 9.26237 87.965 9.0981L87.0073 10.8539ZM88.0647 11.2152C88.3819 11.1123 88.8059 11.048 89.3582 11.048V9.048C88.6624 9.048 88.0184 9.12765 87.4477 9.31278L88.0647 11.2152ZM89.3582 11.048C89.9921 11.048 90.48 11.1833 90.8624 11.4111L91.886 9.6929C91.1403 9.24865 90.2842 9.048 89.3582 9.048V11.048ZM90.8839 11.4236C91.2907 11.6524 91.5795 11.9568 91.7757 12.3492L93.5646 11.4548C93.1848 10.6952 92.6096 10.0996 91.8644 9.68042L90.8839 11.4236ZM91.7832 12.3639C92.0012 12.7823 92.1202 13.2691 92.1202 13.846H94.1202C94.1202 12.9829 93.9392 12.1737 93.5571 11.4401L91.7832 12.3639ZM92.1202 13.846C92.1202 13.92 92.1098 14.0637 92.0762 14.2986L94.0561 14.5814C94.0946 14.3123 94.1202 14.06 94.1202 13.846H92.1202ZM92.0812 14.2674C91.8756 15.4404 91.3592 16.2376 90.5664 16.7677C89.7411 17.3194 88.5099 17.652 86.7662 17.652V19.652C88.7304 19.652 90.4032 19.2826 91.678 18.4303C92.9851 17.5564 93.7647 16.2476 94.0512 14.6126L92.0812 14.2674ZM86.7662 17.652C86.4337 17.652 86.2201 17.6458 86.1049 17.6369L85.9515 19.6311C86.1482 19.6462 86.4266 19.652 86.7662 19.652V17.652ZM85.0629 18.3726L84.8289 19.2366L86.7594 19.7594L86.9934 18.8954L85.0629 18.3726ZM84.8294 19.2349C84.7033 19.6974 84.6081 20.0494 84.5442 20.2896C84.5124 20.4092 84.4876 20.5042 84.4703 20.5723C84.4619 20.6057 84.454 20.6377 84.4477 20.665C84.4447 20.6779 84.4404 20.6969 84.4364 20.7176C84.4344 20.7276 84.431 20.7454 84.4277 20.767C84.4267 20.774 84.4162 20.8387 84.4162 20.92H86.4162C86.4162 20.9998 86.4059 21.0621 86.4053 21.0658C86.4025 21.0842 86.3999 21.0978 86.3989 21.1028C86.3968 21.1135 86.3955 21.119 86.3965 21.1148C86.398 21.108 86.4019 21.0918 86.4092 21.0629C86.4235 21.0066 86.4459 20.9208 86.4771 20.8034C86.5392 20.5696 86.6331 20.2226 86.7589 19.7611L84.8294 19.2349ZM84.4413 20.6972C84.3685 21.0158 84.2753 21.1644 84.2209 21.2252L85.7114 22.5588C86.065 22.1636 86.2718 21.6642 86.391 21.1428L84.4413 20.6972ZM84.2012 21.2479C84.2335 21.2096 84.2616 21.2017 84.2462 21.2072C84.2235 21.2153 84.1532 21.234 84.0122 21.234V23.234C84.604 23.234 85.2712 23.0822 85.7311 22.5361L84.2012 21.2479ZM84.0122 21.234C83.8818 21.234 83.8012 21.2221 83.7587 21.2119C83.7164 21.2018 83.7333 21.1987 83.7755 21.2296L82.5928 22.8424C83.0251 23.1594 83.5562 23.234 84.0122 23.234V21.234ZM83.7654 21.2223C83.8049 21.2505 83.84 21.2847 83.8687 21.3222C83.8969 21.3592 83.9139 21.3929 83.9236 21.4171C83.9415 21.4619 83.9322 21.468 83.9322 21.406H81.9322C81.9322 21.874 82.0673 22.4671 82.6029 22.8497L83.7654 21.2223ZM83.9322 21.406C83.9322 21.3661 83.9374 21.3372 83.944 21.3153L82.0283 20.7407C81.9629 20.9588 81.9322 21.1819 81.9322 21.406H83.9322ZM83.9542 21.2788L86.1322 12.8728L84.1961 12.3712L82.0181 20.7772L83.9542 21.2788ZM84.887 11.6612C84.1714 11.8676 83.5301 12.1759 83.0485 12.6397L84.4358 14.0803C84.6022 13.9201 84.9089 13.7364 85.4413 13.5828L84.887 11.6612ZM84.4793 12.6843C84.4538 12.6564 84.4061 12.591 84.3565 12.4563L82.4798 13.1477C82.5982 13.469 82.7665 13.7756 83.005 14.0357L84.4793 12.6843ZM84.376 12.5147C84.3292 12.3587 84.3102 12.2216 84.3102 12.1H82.3102C82.3102 12.4344 82.3631 12.7653 82.4603 13.0893L84.376 12.5147ZM86.3231 17.9565C86.5085 17.972 86.745 17.978 87.0182 17.978V15.978C86.7633 15.978 86.5918 15.972 86.4892 15.9635L86.3231 17.9565ZM87.0182 17.978C88.2704 17.978 89.3857 17.7428 90.2658 17.1667L89.1705 15.4933C88.7306 15.7812 88.0459 15.978 87.0182 15.978V17.978ZM90.2589 17.1712C91.1896 16.5729 91.7537 15.6583 91.9921 14.5406L90.0362 14.1234C89.8906 14.8056 89.5907 15.2231 89.1774 15.4888L90.2589 17.1712ZM91.9989 14.5058C92.0362 14.2945 92.0682 14.0713 92.0682 13.882H90.0682C90.0682 13.8744 90.0684 13.8922 90.0618 13.9474C90.0556 13.9988 90.0453 14.0682 90.0294 14.1582L91.9989 14.5058ZM92.0682 13.882C92.0682 13.0306 91.828 12.2097 91.1669 11.6339L89.8534 13.1421C89.9363 13.2143 90.0682 13.3894 90.0682 13.882H92.0682ZM91.1804 11.6459C90.5697 11.0943 89.7781 10.884 88.9442 10.884V12.884C89.4542 12.884 89.7066 13.0097 89.8399 13.1301L91.1804 11.6459ZM88.9442 10.884C88.4459 10.884 87.8786 10.9971 87.2727 11.1776L87.8436 13.0944C88.3658 12.9389 88.7224 12.884 88.9442 12.884V10.884ZM86.5884 11.892C86.1189 13.7581 85.7324 15.3759 85.4298 16.744L87.3825 17.176C87.6799 15.8321 88.0615 14.2339 88.5279 12.38L86.5884 11.892ZM94.6426 16.906L95.4444 17.5035L95.4773 17.4594L95.5051 17.412L94.6426 16.906ZM96.3166 14.224L95.4879 13.6641L95.4828 13.6719L96.3166 14.224ZM98.5486 11.056L99.358 11.6432L99.3601 11.6403L98.5486 11.056ZM99.3946 10.318L98.9115 9.44242V9.44242L99.3946 10.318ZM101.591 10.246L102.215 9.46513V9.46513L101.591 10.246ZM101.861 10.93L102.861 10.9409V10.93H101.861ZM101.843 12.586L102.842 12.6146L102.842 12.6057L102.843 12.5969L101.843 12.586ZM101.969 18.58L102.966 18.5061L102.965 18.4959L102.964 18.4857L101.969 18.58ZM102.329 21.19L103.328 21.2316L103.333 21.1025L103.305 20.9763L102.329 21.19ZM102.023 21.982L102.787 22.6261L102.796 22.6165L102.803 22.6067L102.023 21.982ZM100.169 21.91L99.3644 22.5044L100.169 21.91ZM99.7726 20.506L98.7743 20.5647L98.7752 20.5806L98.7767 20.5965L99.7726 20.506ZM99.7366 18.004H100.737V16.828L99.5759 17.017L99.7366 18.004ZM96.0466 18.724L95.804 17.7539L95.3653 17.8635L95.1579 18.2654L96.0466 18.724ZM95.5966 19.606L94.7021 19.1588L94.6978 19.1676L95.5966 19.606ZM94.9846 20.776L94.1208 20.2721L94.1128 20.2858L94.1053 20.2997L94.9846 20.776ZM94.4446 21.532L93.7175 20.8454L93.711 20.8523L93.7046 20.8593L94.4446 21.532ZM93.8686 22.072L93.3139 21.24L93.2908 21.2553L93.2686 21.272L93.8686 22.072ZM92.3566 22L91.8527 22.8638L91.8664 22.8718L91.8803 22.8793L92.3566 22ZM91.9066 21.496V20.496H90.8326L90.9091 21.5672L91.9066 21.496ZM92.2126 20.938L91.3488 20.4341L91.3358 20.4564L91.3239 20.4794L92.2126 20.938ZM93.1486 19.282L94.0201 19.7723L94.0227 19.7676L93.1486 19.282ZM97.2706 16.654L96.4063 16.1509L95.2142 18.1989L97.5131 17.6241L97.2706 16.654ZM98.2426 16.492L98.3594 17.4851L98.3752 17.4833L98.3909 17.4809L98.2426 16.492ZM99.6826 16.276L99.8309 17.2649L100.707 17.1335L100.682 16.2474L99.6826 16.276ZM99.7186 12.676L100.711 12.7963L101.156 9.12646L98.9219 12.0716L99.7186 12.676ZM98.6386 14.332L97.7823 13.8155L97.7799 13.8195L98.6386 14.332ZM95.5051 17.412C96.0237 16.528 96.5721 15.6493 97.1503 14.7761L95.4828 13.6719C94.885 14.5747 94.3174 15.484 93.78 16.4L95.5051 17.412ZM97.1452 14.7839C97.737 13.908 98.4741 12.8615 99.358 11.6432L97.7391 10.4688C96.847 11.6985 96.0962 12.764 95.488 13.6641L97.1452 14.7839ZM99.3601 11.6403C99.4831 11.4694 99.6494 11.3195 99.8776 11.1936L98.9115 9.44242C98.4437 9.70051 98.046 10.0426 97.737 10.4717L99.3601 11.6403ZM99.8776 11.1936C100.088 11.0774 100.283 11.03 100.475 11.03V9.03C99.9221 9.03 99.397 9.17457 98.9115 9.44242L99.8776 11.1936ZM100.475 11.03C100.72 11.03 100.885 11.0462 100.987 11.0658C101.036 11.0753 101.056 11.0829 101.055 11.0827C101.054 11.0824 101.045 11.0788 101.03 11.0706C101.016 11.0624 100.993 11.0485 100.966 11.0269L102.215 9.46513C101.942 9.24678 101.621 9.15145 101.367 9.10222C101.096 9.04978 100.793 9.03 100.475 9.03V11.03ZM100.966 11.0269C100.941 11.0071 100.918 10.9833 100.899 10.9571C100.881 10.9312 100.869 10.9082 100.863 10.8922C100.851 10.8622 100.861 10.8668 100.861 10.93H102.861C102.861 10.4287 102.709 9.86045 102.215 9.46513L100.966 11.0269ZM100.861 10.9191L100.843 12.5751L102.843 12.5969L102.861 10.9409L100.861 10.9191ZM100.843 12.5574C100.819 13.4013 100.807 14.0781 100.807 14.584H102.807C102.807 14.1059 102.818 13.4507 102.842 12.6146L100.843 12.5574ZM100.807 14.584C100.807 16.1299 100.861 17.4947 100.973 18.6743L102.964 18.4857C102.86 17.3853 102.807 16.0861 102.807 14.584H100.807ZM100.971 18.6539C101.046 19.6623 101.172 20.5803 101.352 21.4037L103.305 20.9763C103.15 20.2637 103.035 19.4417 102.966 18.5061L100.971 18.6539ZM101.329 21.1484C101.327 21.2093 101.31 21.2718 101.242 21.3573L102.803 22.6067C103.119 22.2122 103.306 21.7467 103.328 21.2316L101.329 21.1484ZM101.258 21.3379C101.249 21.3477 101.246 21.3497 101.249 21.3476C101.252 21.3452 101.259 21.3403 101.27 21.3352C101.28 21.3301 101.29 21.3269 101.299 21.3251C101.306 21.3235 101.308 21.324 101.303 21.324V23.324C101.897 23.324 102.413 23.0707 102.787 22.6261L101.258 21.3379ZM101.303 21.324C101.103 21.324 100.995 21.2982 100.948 21.2811C100.911 21.2676 100.939 21.2702 100.973 21.3156L99.3644 22.5044C99.8486 23.1595 100.628 23.324 101.303 23.324V21.324ZM100.973 21.3156C100.939 21.2698 100.825 21.0346 100.768 20.4155L98.7767 20.5965C98.8404 21.2974 98.9902 21.9982 99.3644 22.5044L100.973 21.3156ZM100.771 20.4473C100.749 20.0737 100.737 19.2695 100.737 18.004H98.7366C98.7366 19.2585 98.7483 20.1223 98.7743 20.5647L100.771 20.4473ZM99.5759 17.017C98.0159 17.2709 96.7549 17.5161 95.804 17.7539L96.2891 19.6941C97.1622 19.4759 98.3612 19.2411 99.8972 18.991L99.5759 17.017ZM95.1579 18.2654C94.9652 18.6388 94.8129 18.9372 94.7021 19.1588L96.491 20.0532C96.5962 19.8428 96.7439 19.5532 96.9352 19.1826L95.1579 18.2654ZM94.6978 19.1676C94.4627 19.6495 94.271 20.0146 94.1208 20.2721L95.8483 21.2799C96.0341 20.9614 96.2504 20.5465 96.4953 20.0444L94.6978 19.1676ZM94.1053 20.2997C93.9865 20.519 93.8561 20.6987 93.7175 20.8454L95.1716 22.2186C95.441 21.9333 95.6706 21.609 95.8639 21.2523L94.1053 20.2997ZM93.7046 20.8593C93.4744 21.1126 93.3504 21.2156 93.3139 21.24L94.4233 22.9041C94.6747 22.7364 94.9347 22.4794 95.1845 22.2047L93.7046 20.8593ZM93.2686 21.272C93.2948 21.2523 93.3205 21.241 93.3382 21.2357C93.3541 21.2309 93.3535 21.234 93.3286 21.234V23.234C93.7164 23.234 94.119 23.1342 94.4686 22.872L93.2686 21.272ZM93.3286 21.234C93.118 21.234 92.9605 21.1898 92.8328 21.1207L91.8803 22.8793C92.3287 23.1222 92.8191 23.234 93.3286 23.234V21.234ZM92.8604 21.1362C92.7678 21.0822 92.7543 21.0599 92.774 21.082C92.7969 21.1076 92.8897 21.224 92.904 21.4248L90.9091 21.5672C90.96 22.2799 91.5384 22.6804 91.8527 22.8638L92.8604 21.1362ZM91.9066 22.496C92.2015 22.496 92.4034 22.3666 92.4585 22.3302C92.5375 22.2782 92.5918 22.2261 92.617 22.2009C92.6697 22.1482 92.7054 22.1006 92.7184 22.0831C92.7494 22.0413 92.7734 22.0027 92.785 21.9837C92.8122 21.9393 92.8414 21.8874 92.8689 21.8373C92.9261 21.733 93.0043 21.5844 93.1012 21.3966L91.3239 20.4794C91.2289 20.6636 91.16 20.794 91.1152 20.8757C91.1043 20.8955 91.0957 20.9109 91.0892 20.9224C91.0823 20.9345 91.0795 20.9391 91.0798 20.9386C91.0801 20.9381 91.0825 20.9342 91.0866 20.9279C91.0902 20.9225 91.0991 20.9091 91.1122 20.8914C91.1209 20.8797 91.153 20.8365 91.2028 20.7867C91.2265 20.763 91.2795 20.712 91.3574 20.6607C91.3977 20.6341 91.4601 20.5971 91.5419 20.565C91.6222 20.5335 91.7483 20.496 91.9066 20.496V22.496ZM93.0763 21.4419C93.1654 21.2892 93.4827 20.7276 94.0201 19.7723L92.277 18.7917C91.7344 19.7564 91.4277 20.2988 91.3488 20.4341L93.0763 21.4419ZM94.0227 19.7676C94.5499 18.8186 95.024 18.0678 95.4444 17.5035L93.8407 16.3085C93.3491 16.9682 92.8272 17.8014 92.2744 18.7964L94.0227 19.7676ZM97.5131 17.6241C97.6937 17.579 97.97 17.531 98.3594 17.4851L98.1257 15.4988C97.6991 15.549 97.3274 15.609 97.028 15.6839L97.5131 17.6241ZM98.3909 17.4809L99.8309 17.2649L99.5342 15.2871L98.0942 15.5031L98.3909 17.4809ZM100.682 16.2474C100.658 15.4082 100.647 14.8145 100.647 14.458H98.6466C98.6466 14.8455 98.659 15.4638 98.683 16.3046L100.682 16.2474ZM100.647 14.458C100.647 13.6752 100.671 13.1303 100.711 12.7963L98.7258 12.5557C98.6703 13.0137 98.6466 13.6568 98.6466 14.458H100.647ZM98.9219 12.0716C98.6244 12.4637 98.2421 13.0532 97.7823 13.8155L99.4949 14.8485C99.947 14.0988 100.285 13.5843 100.515 13.2804L98.9219 12.0716ZM97.7799 13.8195C97.3339 14.5669 96.876 15.344 96.4063 16.1509L98.1348 17.1571C98.6011 16.356 99.0553 15.5851 99.4973 14.8445L97.7799 13.8195ZM113.586 19.516L114.534 19.8322L114.592 19.6595L114.585 19.4776L113.586 19.516ZM112.578 21.046L113.267 21.7706L113.276 21.7618L112.578 21.046ZM110.67 22.198L110.311 21.2646L110.306 21.2665L110.67 22.198ZM104.838 21.586L104.113 22.2748L104.118 22.2808L104.838 21.586ZM104.802 14.458L103.909 14.0076L103.907 14.0108L104.802 14.458ZM107.538 11.326L108.086 12.1621L108.092 12.158L107.538 11.326ZM112.848 10.552L113.331 9.67676H113.331L112.848 10.552ZM113.928 11.65L113.051 12.1319L113.057 12.1413L113.928 11.65ZM113.91 14.224L113.235 13.4855L113.227 13.493L113.219 13.5006L113.91 14.224ZM112.092 14.314L111.244 14.844L111.255 14.8625L111.268 14.8805L112.092 14.314ZM111.912 13.576L110.912 13.5448L110.912 13.5604V13.576H111.912ZM111.93 13L112.929 13.0312L112.93 13.0156V13H111.93ZM108.78 13.018L109.423 13.7832L108.78 13.018ZM106.872 15.556L105.973 15.117L105.969 15.1253L106.872 15.556ZM106.764 20.308L106.136 21.0868L106.764 20.308ZM109.662 20.542L109.29 19.6135L109.282 19.6168L109.662 20.542ZM110.58 19.822L111.489 20.2387L111.511 20.1895L111.528 20.1382L110.58 19.822ZM110.76 19.372L111.685 19.7506L111.688 19.7435L111.691 19.7364L110.76 19.372ZM111.246 18.616L110.521 17.9272L110.52 17.9283L111.246 18.616ZM113.226 18.652L112.452 19.2852L112.46 19.2955L112.469 19.3056L113.226 18.652ZM112.637 19.1998C112.517 19.5602 112.281 19.9387 111.879 20.3302L113.276 21.7618C113.859 21.1933 114.294 20.5518 114.534 19.8322L112.637 19.1998ZM111.888 20.3214C111.511 20.6805 110.995 21.0013 110.311 21.2647L111.029 23.1313C111.904 22.7947 112.66 22.3475 113.267 21.7706L111.888 20.3214ZM110.306 21.2665C109.672 21.5139 108.929 21.648 108.06 21.648V23.648C109.134 23.648 110.131 23.4821 111.033 23.1295L110.306 21.2665ZM108.06 21.648C106.735 21.648 105.977 21.3263 105.557 20.8912L104.118 22.2808C105.066 23.2617 106.456 23.648 108.06 23.648V21.648ZM105.563 20.8973C105.077 20.3866 104.812 19.726 104.812 18.832H102.812C102.812 20.17 103.23 21.3454 104.113 22.2747L105.563 20.8973ZM104.812 18.832C104.812 17.3783 105.111 16.0753 105.696 14.9052L103.907 14.0108C103.172 15.4807 102.812 17.0937 102.812 18.832H104.812ZM105.694 14.9084C106.294 13.7196 107.093 12.814 108.086 12.162L106.989 10.49C105.678 11.35 104.653 12.5324 103.909 14.0076L105.694 14.9084ZM108.092 12.158C109.081 11.4992 110.154 11.174 111.336 11.174V9.174C109.757 9.174 108.299 9.61682 106.983 10.4939L108.092 12.158ZM111.336 11.174C111.729 11.174 112.065 11.262 112.364 11.4272L113.331 9.67676C112.718 9.33803 112.046 9.174 111.336 9.174V11.174ZM112.364 11.4272C112.646 11.583 112.874 11.8085 113.051 12.1319L114.804 11.1681C114.454 10.5315 113.961 10.025 113.331 9.67676L112.364 11.4272ZM113.057 12.1413C113.222 12.434 113.324 12.8104 113.324 13.306H115.324C115.324 12.5296 115.161 11.802 114.799 11.1587L113.057 12.1413ZM113.324 13.306C113.324 13.3731 113.313 13.4148 113.235 13.4855L114.584 14.9625C115.058 14.5292 115.324 13.9589 115.324 13.306H113.324ZM113.219 13.5006C113.185 13.5335 113.096 13.602 112.83 13.602V15.602C113.475 15.602 114.106 15.4185 114.6 14.9474L113.219 13.5006ZM112.83 13.602C112.732 13.602 112.712 13.588 112.739 13.5984C112.754 13.6046 112.783 13.6182 112.818 13.6446C112.853 13.6715 112.887 13.7064 112.916 13.7475L111.268 14.8805C111.671 15.468 112.327 15.602 112.83 15.602V13.602ZM112.94 13.784C112.946 13.7948 112.912 13.748 112.912 13.576H110.912C110.912 14.004 110.997 14.4492 111.244 14.844L112.94 13.784ZM112.911 13.6072L112.929 13.0312L110.93 12.9688L110.912 13.5448L112.911 13.6072ZM112.93 13C112.93 12.3762 112.576 11.9127 112.217 11.6081L110.922 13.1319C110.979 13.1803 110.983 13.1976 110.971 13.1766C110.965 13.1648 110.954 13.1425 110.945 13.1103C110.935 13.0775 110.93 13.0399 110.93 13H112.93ZM112.217 11.6081C111.89 11.3302 111.444 11.064 110.904 11.064V13.064C110.836 13.064 110.8 13.0466 110.806 13.0492C110.809 13.0506 110.82 13.0563 110.841 13.0698C110.861 13.0834 110.888 13.1033 110.922 13.1319L112.217 11.6081ZM110.904 11.064C109.916 11.064 108.986 11.5378 108.136 12.2528L109.423 13.7832C110.086 13.2262 110.572 13.064 110.904 13.064V11.064ZM108.136 12.2528C107.255 12.9939 106.539 13.9591 105.973 15.117L107.77 15.995C108.236 15.0409 108.792 14.3141 109.423 13.7832L108.136 12.2528ZM105.969 15.1253C105.399 16.3207 105.116 17.6024 105.116 18.958H107.116C107.116 17.8896 107.337 16.9033 107.774 15.9867L105.969 15.1253ZM105.116 18.958C105.116 19.8143 105.47 20.55 106.136 21.0868L107.391 19.5292C107.193 19.37 107.116 19.2057 107.116 18.958H105.116ZM106.136 21.0868C106.778 21.6039 107.558 21.83 108.402 21.83V19.83C107.925 19.83 107.613 19.7081 107.391 19.5292L106.136 21.0868ZM108.402 21.83C108.941 21.83 109.493 21.6919 110.041 21.4672L109.282 19.6168C108.894 19.7761 108.606 19.83 108.402 19.83V21.83ZM110.033 21.4705C110.609 21.2402 111.199 20.8697 111.489 20.2387L109.671 19.4053C109.684 19.3751 109.69 19.3875 109.634 19.4311C109.576 19.4769 109.469 19.542 109.29 19.6135L110.033 21.4705ZM111.528 20.1382C111.523 20.1548 111.521 20.1593 111.53 20.1346C111.537 20.1163 111.548 20.0898 111.562 20.0539C111.591 19.9825 111.632 19.8817 111.685 19.7506L109.834 18.9934C109.735 19.2344 109.657 19.4288 109.631 19.5058L111.528 20.1382ZM111.691 19.7364C111.749 19.5875 111.839 19.4439 111.972 19.3037L110.52 17.9283C110.22 18.2441 109.986 18.6045 109.828 19.0076L111.691 19.7364ZM111.971 19.3047C112.019 19.2537 112.044 19.2427 112.04 19.2448C112.037 19.2459 112.03 19.2491 112.018 19.2519C112.006 19.2547 111.994 19.256 111.984 19.256V17.256C111.379 17.256 110.886 17.5422 110.521 17.9272L111.971 19.3047ZM111.984 19.256C112.225 19.256 112.372 19.283 112.449 19.3077C112.522 19.331 112.496 19.3391 112.452 19.2852L114 18.0188C113.487 17.3918 112.671 17.256 111.984 17.256V19.256ZM112.469 19.3056C112.567 19.4193 112.584 19.4957 112.586 19.5544L114.585 19.4776C114.563 18.9123 114.34 18.4127 113.982 17.9984L112.469 19.3056ZM117.528 12.28L118.502 12.5049L118.541 12.3389L118.522 12.1696L117.528 12.28ZM117.258 11.794L116.364 12.2412L116.408 12.3298L116.469 12.4079L117.258 11.794ZM117.114 11.578L116.27 12.1149L116.282 12.1334L116.295 12.1515L117.114 11.578ZM116.97 11.2L115.972 11.1312L115.967 11.2155L115.975 11.2995L116.97 11.2ZM117.636 10.372L117.504 9.38077L117.344 9.40207L117.199 9.47249L117.636 10.372ZM121.416 10.03L121.483 11.0278L121.49 11.0273L121.416 10.03ZM124.89 9.832L125.347 8.94243L125.124 8.82782L124.873 8.83215L124.89 9.832ZM125.214 11.308L125.834 12.0929L125.846 12.0831L125.858 12.0729L125.214 11.308ZM124.44 11.686L124.508 12.6837L124.597 12.6777L124.683 12.6561L124.44 11.686ZM123.648 11.74L123.712 12.7379L123.716 12.7377L123.648 11.74ZM122.172 11.848L122.232 12.8462L122.241 12.8457L122.25 12.8449L122.172 11.848ZM120.03 12.01L119.943 11.0138L119.196 11.0787L119.049 11.8139L120.03 12.01ZM119.436 14.638L118.466 14.3955L118.1 15.8589L119.59 15.626L119.436 14.638ZM121.326 14.35L121.185 13.36L121.181 13.3605L121.326 14.35ZM122.982 14.17L123.353 13.2415L123.136 13.1545L122.902 13.1732L122.982 14.17ZM123.378 15.646L124.063 16.3742L124.065 16.373L123.378 15.646ZM122.658 16.06L122.765 17.0543L122.859 17.0442L122.949 17.0167L122.658 16.06ZM121.65 16.168L121.543 15.1737L121.54 15.1741L121.65 16.168ZM119.022 16.528L118.846 15.5436L118.212 15.6568L118.053 16.2809L119.022 16.528ZM118.338 19.21L117.369 18.9629L117.359 19.0039L117.352 19.0456L118.338 19.21ZM118.302 19.48L119.294 19.604L119.296 19.5904L118.302 19.48ZM120.426 20.164L120.572 21.1534L120.586 21.1513L120.6 21.1488L120.426 20.164ZM122.01 19.858L121.819 18.8763L121.81 18.8781L122.01 19.858ZM122.658 19.732L123.081 18.8258L122.786 18.6883L122.467 18.7504L122.658 19.732ZM123.144 20.164L123.961 19.5873L123.144 20.164ZM123.036 21.388L123.723 22.115L123.036 21.388ZM122.316 21.82L122.533 22.7962L122.577 22.7865L122.619 22.7729L122.316 21.82ZM120.192 22.198L120.053 21.2077L120.192 22.198ZM116.412 21.928L115.878 22.7735L116.412 21.928ZM115.854 19.534L116.828 19.7612L116.828 19.7589L115.854 19.534ZM118.522 12.1696C118.494 11.9223 118.396 11.7185 118.326 11.5919C118.247 11.4503 118.15 11.3114 118.047 11.1801L116.469 12.4079C116.5 12.4486 116.525 12.4824 116.543 12.5096C116.562 12.5372 116.573 12.5547 116.577 12.5631C116.582 12.5724 116.577 12.5647 116.569 12.5423C116.564 12.5305 116.558 12.5121 116.552 12.4879C116.546 12.4639 116.539 12.4309 116.534 12.3904L118.522 12.1696ZM118.152 11.3468C118.113 11.2688 118.061 11.1918 118.045 11.1673C118.015 11.1222 117.977 11.0671 117.933 11.0045L116.295 12.1515C116.335 12.2089 116.363 12.2498 116.381 12.2767C116.385 12.2831 116.389 12.2881 116.391 12.2917C116.393 12.2955 116.394 12.2971 116.394 12.297C116.394 12.2969 116.394 12.296 116.393 12.2944C116.392 12.2929 116.39 12.2902 116.388 12.2866C116.385 12.2815 116.375 12.2649 116.364 12.2412L118.152 11.3468ZM117.958 11.0411C117.934 11.0032 117.958 11.0256 117.965 11.1005L115.975 11.2995C116.006 11.6144 116.126 11.8888 116.27 12.1149L117.958 11.0411ZM117.968 11.2688C117.967 11.2799 117.964 11.2982 117.955 11.3193C117.947 11.3402 117.938 11.3536 117.934 11.3588C117.928 11.3664 117.955 11.3286 118.073 11.2715L117.199 9.47249C116.581 9.77269 116.029 10.3067 115.972 11.1312L117.968 11.2688ZM117.768 11.3632C118.636 11.2475 119.87 11.1353 121.483 11.0278L121.349 9.03221C119.722 9.14073 118.436 9.25645 117.504 9.38077L117.768 11.3632ZM121.49 11.0273C123.109 10.9073 124.242 10.8433 124.907 10.8319L124.873 8.83215C124.146 8.84468 122.963 8.91268 121.342 9.03273L121.49 11.0273ZM124.433 10.7216C124.499 10.7554 124.542 10.7842 124.569 10.8048C124.595 10.8252 124.601 10.8345 124.598 10.8295C124.593 10.8234 124.581 10.8053 124.57 10.7758C124.56 10.7459 124.556 10.7174 124.556 10.696H126.556C126.556 9.81897 125.96 9.25754 125.347 8.94243L124.433 10.7216ZM124.556 10.696C124.556 10.6609 124.561 10.626 124.57 10.5938C124.578 10.562 124.589 10.5382 124.598 10.5232C124.613 10.4952 124.616 10.5044 124.57 10.5431L125.858 12.0729C126.222 11.7667 126.556 11.3072 126.556 10.696H124.556ZM124.594 10.5231C124.48 10.6134 124.351 10.6774 124.197 10.7159L124.683 12.6561C125.105 12.5506 125.492 12.3626 125.834 12.0929L124.594 10.5231ZM124.372 10.6883L123.58 10.7423L123.716 12.7377L124.508 12.6837L124.372 10.6883ZM123.584 10.7421C123.205 10.7665 122.708 10.8029 122.094 10.8511L122.25 12.8449C122.86 12.7971 123.347 12.7615 123.712 12.7379L123.584 10.7421ZM122.112 10.8498C121.501 10.8865 120.777 10.9413 119.943 11.0138L120.117 13.0062C120.939 12.9347 121.643 12.8815 122.232 12.8462L122.112 10.8498ZM119.049 11.8139C118.885 12.6369 118.69 13.4974 118.466 14.3955L120.406 14.8805C120.638 13.9546 120.839 13.0631 121.011 12.2061L119.049 11.8139ZM119.59 15.626C120.357 15.5063 120.983 15.4108 121.471 15.3395L121.181 13.3605C120.685 13.4332 120.051 13.5297 119.282 13.65L119.59 15.626ZM121.467 15.3399C121.948 15.2713 122.479 15.2135 123.062 15.1668L122.902 13.1732C122.285 13.2225 121.712 13.2847 121.185 13.3601L121.467 15.3399ZM122.611 15.0985C122.68 15.1263 122.723 15.1503 122.747 15.1661C122.771 15.1816 122.771 15.1859 122.76 15.1736C122.749 15.1599 122.731 15.1343 122.718 15.0984C122.705 15.0625 122.702 15.0325 122.702 15.016H124.702C124.702 14.5937 124.558 14.2002 124.284 13.8774C124.025 13.5734 123.688 13.3753 123.353 13.2415L122.611 15.0985ZM122.702 15.016C122.702 14.9857 122.706 14.9568 122.712 14.9311C122.719 14.9058 122.727 14.888 122.732 14.8782C122.741 14.8603 122.737 14.8755 122.691 14.919L124.065 16.373C124.403 16.0532 124.702 15.598 124.702 15.016H122.702ZM122.693 14.9178C122.604 15.0011 122.5 15.0628 122.367 15.1033L122.949 17.0167C123.368 16.8892 123.744 16.6749 124.063 16.3742L122.693 14.9178ZM122.551 15.0657L121.543 15.1737L121.757 17.1623L122.765 17.0543L122.551 15.0657ZM121.54 15.1741C120.449 15.2953 119.549 15.4181 118.846 15.5436L119.198 17.5124C119.839 17.3979 120.691 17.2807 121.76 17.1619L121.54 15.1741ZM118.053 16.2809L117.369 18.9629L119.307 19.4571L119.991 16.7751L118.053 16.2809ZM117.352 19.0456C117.336 19.1419 117.321 19.2513 117.308 19.3696L119.296 19.5904C119.307 19.4927 119.316 19.4221 119.324 19.3744L117.352 19.0456ZM117.31 19.356C117.294 19.4801 117.284 19.6072 117.284 19.732H119.284C119.284 19.7128 119.286 19.6719 119.294 19.604L117.31 19.356ZM117.284 19.732C117.284 20.261 117.548 20.7219 118.007 20.9885C118.384 21.207 118.82 21.254 119.184 21.254V19.254C119.079 19.254 119.014 19.2462 118.98 19.2396C118.944 19.2326 118.964 19.2311 119.011 19.2585C119.064 19.2895 119.145 19.3533 119.207 19.4621C119.27 19.5707 119.284 19.6717 119.284 19.732H117.284ZM119.184 21.254C119.652 21.254 120.114 21.2206 120.572 21.1534L120.281 19.1746C119.922 19.2274 119.556 19.254 119.184 19.254V21.254ZM120.6 21.1488C121.02 21.0746 121.557 20.9707 122.21 20.8379L121.81 18.8781C121.167 19.0093 120.648 19.1094 120.252 19.1792L120.6 21.1488ZM122.201 20.8396L122.849 20.7136L122.467 18.7504L121.819 18.8764L122.201 20.8396ZM122.235 20.6382C122.222 20.6319 122.258 20.6429 122.327 20.7407L123.961 19.5873C123.742 19.2771 123.454 19.0001 123.081 18.8258L122.235 20.6382ZM122.327 20.7407C122.357 20.7832 122.366 20.8054 122.366 20.8072C122.366 20.8079 122.365 20.8035 122.363 20.7944C122.361 20.7852 122.36 20.7729 122.36 20.758H124.36C124.36 20.3053 124.188 19.9096 123.961 19.5873L122.327 20.7407ZM122.36 20.758C122.36 20.7277 122.364 20.6988 122.37 20.6731C122.377 20.6478 122.385 20.63 122.39 20.6202C122.399 20.6023 122.395 20.6175 122.349 20.661L123.723 22.115C124.061 21.7952 124.36 21.34 124.36 20.758H122.36ZM122.349 20.661C122.235 20.7695 122.123 20.8319 122.013 20.8671L122.619 22.7729C123.037 22.6401 123.405 22.4145 123.723 22.115L122.349 20.661ZM122.099 20.8438C121.481 20.9812 120.799 21.1028 120.053 21.2077L120.331 23.1883C121.121 23.0772 121.855 22.9468 122.533 22.7962L122.099 20.8438ZM120.053 21.2077C119.324 21.3102 118.651 21.36 118.032 21.36V23.36C118.757 23.36 119.524 23.3018 120.331 23.1883L120.053 21.2077ZM118.032 21.36C117.567 21.36 117.218 21.2545 116.946 21.0825L115.878 22.7735C116.518 23.1775 117.249 23.36 118.032 23.36V21.36ZM116.946 21.0825C116.853 21.024 116.728 20.9136 116.728 20.488H114.728C114.728 21.4064 115.059 22.256 115.878 22.7735L116.946 21.0825ZM116.728 20.488C116.728 20.3093 116.756 20.0701 116.828 19.7612L114.88 19.3068C114.784 19.7179 114.728 20.1147 114.728 20.488H116.728ZM116.828 19.7589L118.502 12.5049L116.554 12.0551L114.88 19.3091L116.828 19.7589Z" fill="url(#paint1_radial)"/>
<path d="M38.3694 7.22643C35.8629 4.32815 32.2471 2.13211 28.0458 0.95643C23.8446 -0.219247 19.2761 -0.313505 15.0021 0.687312C10.7281 1.68813 6.97064 3.73205 4.27397 6.52297C1.57731 9.3139 0.0814954 12.7069 0.00323371 16.2105C-0.075028 19.714 1.26832 23.1462 3.83868 26.0097C6.40904 28.8733 10.0729 31.0195 14.2996 32.1376C18.5262 33.2556 23.0961 33.2874 27.3473 32.2283C31.5984 31.1691 35.3101 29.0742 37.9445 26.2468L30.5508 21.9938C29.0659 23.5874 26.9738 24.7683 24.5776 25.3652C22.1815 25.9622 19.6057 25.9443 17.2233 25.3141C14.841 24.6839 12.7758 23.4742 11.327 21.8601C9.87825 20.2461 9.12107 18.3116 9.16518 16.3368C9.20929 14.362 10.0524 12.4496 11.5724 10.8765C13.0924 9.30335 15.2103 8.15129 17.6193 7.58718C20.0283 7.02307 22.6034 7.0762 24.9714 7.73887C27.3394 8.40154 29.3774 9.63934 30.7902 11.273L38.3694 7.22643Z" fill="url(#paint2_linear)"/>
<defs>
<linearGradient id="paint0_linear" x1="35.5" y1="18" x2="125" y2="17.5" gradientUnits="userSpaceOnUse">
<stop stop-color="#EBEBEB"/>
<stop offset="0.557292" stop-color="#BAC3EE" stop-opacity="0.99"/>
<stop offset="1" stop-color="#EDEDED" stop-opacity="0.99"/>
</linearGradient>
<radialGradient id="paint1_radial" cx="0" cy="0" r="1" gradientUnits="userSpaceOnUse" gradientTransform="translate(90 12) rotate(90) scale(12 56)">
<stop stop-color="#C20505"/>
<stop offset="1" stop-color="#878787" stop-opacity="0"/>
</radialGradient>
<linearGradient id="paint2_linear" x1="44.5" y1="9.5" x2="4.97559e-07" y2="12" gradientUnits="userSpaceOnUse">
<stop stop-color="#515098"/>
<stop offset="1" stop-color="#D6D9E2" stop-opacity="0.82"/>
</linearGradient>
</defs>
</svg>
